<?xml version="1.0" encoding="utf-8"?><svg viewBox="0 0 211 146" xmlns="http://www.w3.org/2000/svg" xmlns:xlink="http://www.w3.org/1999/xlink"><style>:root>svg{display:none}:root>svg:target{display:block}</style><svg viewBox="-1 -1 15.4 15.4" id="image-arrow-down" xmlns="http://www.w3.org/2000/svg"><path d="M0 6.7l1.4-1.4 4.4 4.3V0h2v9.6L12 5.3l1.4 1.4-6.6 6.7z"/></svg><svg viewBox="-1 -1 52 55.8" id="image-arrow-left" xmlns="http://www.w3.org/2000/svg"><path d="M24.9 53.8S.4 27.7 0 27.2C.4 26.7 24.9 0 24.9 0l3 2.7L7.2 25.2H50v4H7.3L27.8 51l-2.9 2.8z"/></svg><svg viewBox="-1 -1 52.1 55.8" id="image-arrow-right" xmlns="http://www.w3.org/2000/svg"><path d="M25.2 53.8l-3-2.7 20.6-22.5H0v-4h42.7L22.2 2.7 25.1 0s24.5 26 25 26.5c-.4.4-24.9 27.3-24.9 27.3z"/></svg><svg viewBox="-1 -1 35.1 24.9" id="image-arrow-slide-left" xmlns="http://www.w3.org/2000/svg"><path d="M11.3 22.9C7.6 19.1 3.8 15.2 0 11.4 3.8 7.6 7.6 3.8 11.3 0l2.1 2.1-7.8 7.8h27.5v3H5.6l7.8 7.8-2.1 2.2z"/></svg><svg viewBox="-1 -1 35.2 24.9" id="image-arrow-slide-right" xmlns="http://www.w3.org/2000/svg"><path d="M21.8 22.9l-2.1-2.1 7.8-7.8H0v-3h27.5l-7.8-7.8L21.8 0l11.4 11.4c-3.8 3.9-7.6 7.7-11.4 11.5z"/></svg><svg viewBox="-1 -1 13.3 12.9" id="image-arrow-top-right" xmlns="http://www.w3.org/2000/svg"><path d="M1.7 11.5L.3 10.1 8 2.6l-6.9.1v-2l9.4-.1h1v1l.1 9.3h-2l-.1-7z"/></svg><svg viewBox="-1 -1 42 42" id="image-arrow-top-right2" xmlns="http://www.w3.org/2000/svg"><path d="M35.1 39.1l-.9-31L3.4 38.9.6 36.1 30.9 5.7l-30-.8L1 1l37 .9V2l1 37z"/></svg><svg viewBox="-1 -1 42 42" id="image-close" xmlns="http://www.w3.org/2000/svg"><path class="hst0" d="M10.322 28.284l16.97-16.97 1.415 1.414-16.97 16.97z"/><path d="M10.322 12.728l1.414-1.414 16.97 16.97-1.414 1.414z"/></svg><svg viewBox="-1 -1 42 42" id="image-facebook" xmlns="http://www.w3.org/2000/svg"><path fill-rule="evenodd" clip-rule="evenodd" d="M20 0c11.045 0 20 8.955 20 20 0 9.984-7.313 18.259-16.875 19.758V25.783h4.66L28.671 20h-5.546v-3.752c0-.62.119-1.233.412-1.75.457-.804 1.336-1.375 2.847-1.375h2.523V8.201s-2.289-.39-4.477-.39c-3.946 0-6.712 2.064-7.392 5.859-.107.598-.163 1.24-.163 1.923V20h-5.079v5.783h5.08v13.975C7.312 38.256 0 29.982 0 20 0 8.955 8.955 0 20 0z"/></svg><svg viewBox="-1 -1 42 42" id="image-linkedin" xmlns="http://www.w3.org/2000/svg"><path d="M33.904 33.904h-5.896V24.67c0-2.201-.04-5.036-3.066-5.036-3.071 0-3.541 2.4-3.541 4.876v9.393h-5.896V14.916h5.66v2.595h.08a6.202 6.202 0 015.584-3.067c5.975 0 7.077 3.93 7.077 9.044l-.002 10.416zM8.853 12.32a3.421 3.421 0 11-.002-6.842 3.421 3.421 0 01.002 6.842zM11.8 33.904H5.898V14.916H11.8v18.988zM36.843.002H2.936A2.904 2.904 0 000 2.871v34.048a2.906 2.906 0 002.936 2.87h33.907a2.911 2.911 0 002.948-2.87V2.869A2.91 2.91 0 0036.843 0"/></svg><svg fill="none" viewBox="-1 -1 75 50" id="image-quotes" xmlns="http://www.w3.org/2000/svg"><path d="M24.8 47.6H0L21 0h16L24.8 47.6zm36 0H36L57 0h16L60.8 47.6z" fill="#E0E5E4"/></svg><svg fill="none" viewBox="-1 -1 211 146" id="image-youtube-play" xmlns="http://www.w3.org/2000/svg"><path d="M108.698 143.811l-42.709-.781c-13.828-.272-27.69.271-41.248-2.548-20.623-4.214-22.084-24.871-23.613-42.2-2.106-24.36-1.291-49.163 2.684-73.32C6.057 11.405 14.888 3.317 28.547 2.437 74.653-.757 121.066-.378 167.07 1.112c4.859.137 9.751.884 14.542 1.733 23.648 4.146 24.225 27.556 25.758 47.262 1.529 19.91.883 39.923-2.039 59.697-2.344 16.373-6.829 30.103-25.758 31.428-23.717 1.734-46.889 3.129-70.672 2.685.001-.106-.135-.106-.203-.106zM83.589 102.36c17.873-10.261 35.404-20.352 53.174-30.545-17.906-10.261-35.404-20.352-53.174-30.545v61.09z" fill="#fff"/><path d="M83.59 102.36c17.872-10.261 35.403-20.352 53.173-30.545-17.906-10.261-35.404-20.352-53.174-30.545v61.09z" fill="#fff"/><path d="M108.698 143.811l-42.709-.781c-13.828-.272-27.69.271-41.248-2.548-20.623-4.214-22.084-24.871-23.613-42.2-2.106-24.36-1.291-49.163 2.684-73.32C6.057 11.405 14.888 3.317 28.547 2.437 74.653-.757 121.066-.378 167.07 1.112c4.859.137 9.751.884 14.542 1.733 23.648 4.146 24.225 27.556 25.758 47.262 1.529 19.91.883 39.923-2.039 59.697-2.344 16.373-6.829 30.103-25.758 31.428-23.717 1.734-46.889 3.129-70.672 2.685.001-.106-.135-.106-.203-.106zM83.589 102.36c17.873-10.261 35.404-20.352 53.174-30.545-17.906-10.261-35.404-20.352-53.174-30.545v61.09z" fill="red"/></svg></svg>