<svg width="592" height="566" viewBox="0 0 592 566" fill="none" xmlns="http://www.w3.org/2000/svg"><path fill-rule="evenodd" clip-rule="evenodd" d="m571.065 565.866 18.084.001v-2.098l-15.536-.001 18.09-17.98-1.49-1.485-18.093 17.983v-15.442h-2.109v19.022h1.054Zm-63.266 0 18.084.001v-2.098l-15.536-.001 18.09-17.98-1.49-1.485-18.094 17.983v-15.442h-2.108v19.022h1.054Zm-45.182.001-18.084-.001h-1.055v-19.022h2.109v15.442l18.093-17.983 1.491 1.485-18.091 17.98 15.537.001v2.098Zm-81.35-.001 18.083.001v-2.098l-15.536-.001 18.09-17.98-1.49-1.485-18.093 17.983v-15.442h-2.109v19.022h1.055Zm-45.183.001L318 565.866h-1.054v-19.022h2.109v15.442l18.093-17.983 1.49 1.485-18.09 17.98 15.536.001v2.098Zm-81.35-.001 18.084.001v-2.098l-15.536-.001 18.09-17.98-1.49-1.485-18.094 17.983v-15.442h-2.108v19.022h1.054Zm-45.184.001-18.083-.001h-1.055v-19.022h2.109v15.442l18.094-17.983 1.491 1.485-18.091 17.98 15.535.001v2.098Zm-81.35-.001 18.084.001v-2.098l-15.535-.001 18.09-17.98-1.49-1.485-18.094 17.983v-15.442h-2.109v19.022h1.054Zm-45.182.001-18.084-.001H63.88v-19.022h2.109v15.442l18.094-17.983 1.49 1.485-18.09 17.98 15.535.001v2.098Zm-81.35-.001 18.084.001v-2.099H4.216l18.09-17.98-1.49-1.485-18.094 17.983v-15.442H.613v19.022h1.055Zm587.481-60.4h-19.138v-19.023h2.109v15.443l18.093-17.983 1.49 1.484-18.09 17.981h15.536v2.098Zm-81.35 0h18.084v-2.098h-15.536l18.09-17.981-1.49-1.484-18.094 17.983v-15.443h-2.108v19.023h1.054Zm-45.182 0h-19.139v-19.023h2.109v15.443l18.093-17.983 1.491 1.484-18.091 17.981h15.537v2.098Zm-81.35 0h18.083v-2.098h-15.536l18.09-17.981-1.49-1.484-18.093 17.983v-15.443h-2.109v19.023h1.055Zm-45.183 0h-19.138v-19.023h2.109v15.443l18.093-17.983 1.49 1.484-18.09 17.981h15.536v2.098Zm-81.35 0h18.084v-2.098h-15.536l18.09-17.981-1.49-1.484-18.094 17.983v-15.443h-2.108v19.023h1.054Zm-45.184 0h-19.138v-19.023h2.109v15.443l18.094-17.983 1.491 1.484-18.091 17.981h15.535v2.098Zm-81.35 0h18.084v-2.098h-15.535l18.09-17.981-1.49-1.484-18.094 17.983v-15.443h-2.109v19.023h1.054Zm-45.182 0H63.88v-19.023h2.109v15.443l18.094-17.983 1.49 1.484-18.09 17.981h15.535v2.098Zm-81.35 0h18.084v-2.098H4.216l18.09-17.981-1.49-1.484-18.094 17.983v-15.443H.613v19.023h1.055Zm587.481-60.4-18.084-.001h-1.054v-19.022h2.109v15.442l18.093-17.983 1.49 1.485-18.09 17.98h15.536v2.099Zm-81.35-.001 18.084.001v-2.099h-15.536l18.09-17.98-1.49-1.485-18.093 17.983v-15.442h-2.109v19.022h1.054Zm-45.182.001-18.084-.001h-1.055v-19.022h2.109v15.442l18.093-17.983 1.491 1.485-18.091 17.98h15.537v2.099Zm-81.35-.001 18.083.001v-2.099h-15.536l18.09-17.981-1.49-1.484-18.093 17.983v-15.442h-2.109v19.022h1.055Zm-45.183.001L318 445.065h-1.054v-19.022h2.109v15.442l18.093-17.983 1.49 1.484-18.09 17.981h15.536v2.099Zm-81.35-.001 18.084.001v-2.099h-15.536l18.09-17.981-1.49-1.484-18.094 17.983v-15.442h-2.108v19.022h1.054Zm-45.184.001-18.083-.001h-1.055v-19.022h2.109v15.442l18.094-17.983 1.491 1.484-18.091 17.981h15.535v2.099Zm-81.35-.001 18.084.001v-2.099h-15.535l18.09-17.981-1.49-1.484-18.094 17.983v-15.442h-2.109v19.022h1.054Zm-45.182 0H63.88v-19.022h2.109v15.442l18.094-17.983 1.49 1.484-18.09 17.981h15.535v2.098Zm-81.35 0h18.084v-2.098H4.216l18.09-17.981-1.49-1.484-18.094 17.983v-15.442H.613v19.022h1.055Zm587.481-60.4-18.084-.001h-1.054v-19.022h2.109v15.443l18.093-17.983 1.49 1.484-18.09 17.98 15.536.001v2.098Zm-81.35-.001 18.084.001v-2.098l-15.536-.001 18.09-17.98-1.49-1.484-18.093 17.983v-15.443h-2.109v19.022h1.054Zm-45.182.001-18.084-.001h-1.055v-19.022h2.109v15.443l18.093-17.983 1.491 1.484-18.091 17.98 15.537.001v2.098Zm-81.35-.001 18.083.001v-2.098l-15.536-.001 18.09-17.98-1.49-1.484-18.093 17.983v-15.443h-2.109v19.022h1.055Zm-45.183.001L318 384.664h-1.054v-19.022h2.109v15.443l18.093-17.983 1.49 1.484-18.09 17.98 15.536.001v2.098Zm-81.35-.001 18.084.001v-2.098l-15.536-.001 18.09-17.98-1.49-1.484-18.094 17.983v-15.443h-2.108v19.022h1.054Zm-45.184.001-18.083-.001h-1.055v-19.022h2.109v15.443l18.094-17.983 1.491 1.484-18.091 17.98 15.535.001v2.098Zm-81.35-.001 18.084.001v-2.098l-15.535-.001 18.09-17.98-1.49-1.484-18.094 17.983v-15.443h-2.109v19.022h1.054Zm-45.182.001-18.084-.001H63.88v-19.022h2.109v15.443l18.094-17.983 1.49 1.484-18.09 17.98 15.535.001v2.098Zm-81.35-.001 18.084.001v-2.098l-15.536-.001 18.09-17.98-1.49-1.484-18.094 17.983v-15.443H.613v19.022h1.055Zm587.481-60.4h-19.138v-19.023h2.109v15.443l18.093-17.983 1.49 1.484-18.09 17.981h15.536v2.098Zm-81.35 0h18.084v-2.098h-15.536l18.09-17.981-1.49-1.484-18.093 17.983v-15.443h-2.109v19.023h1.054Zm-45.182 0h-19.139v-19.023h2.109v15.443l18.093-17.983 1.491 1.484-18.091 17.981h15.537v2.098Zm-81.35 0h18.084v-2.098h-15.537l18.09-17.981-1.49-1.484-18.093 17.983v-15.443h-2.109v19.023h1.055Zm-45.183 0h-19.138v-19.023h2.109v15.443l18.093-17.983 1.49 1.484-18.09 17.981h15.536v2.098Zm-81.35 0h18.084v-2.098h-15.536l18.09-17.981-1.49-1.484-18.094 17.983v-15.443h-2.108v19.023h1.054Zm-45.184 0h-19.138v-19.023h2.109v15.443l18.094-17.983 1.491 1.484-18.091 17.981h15.535v2.098Zm-81.35 0h18.084v-2.098h-15.535l18.09-17.981-1.49-1.484-18.094 17.983v-15.443h-2.109v19.023h1.054Zm-45.182 0H63.88v-19.023h2.109v15.443l18.094-17.983 1.49 1.484-18.09 17.981h15.535v2.098Zm-81.35 0h18.084v-2.098H4.216l18.09-17.981-1.49-1.484-18.094 17.983v-15.443H.613v19.023h1.055Zm587.481-60.4-18.084-.001h-1.054v-19.022h2.109v15.442l18.093-17.983 1.49 1.485-18.09 17.98h15.536v2.099Zm-81.35-.001 18.084.001v-2.099h-15.536l18.09-17.98-1.49-1.485-18.093 17.983v-15.442h-2.109v19.022h1.054Zm-45.182.001-18.084-.001h-1.055v-19.022h2.109v15.442L463.68 242.3l1.491 1.485-18.091 17.98h15.537v2.099Zm-81.35-.001 18.084.001v-2.099h-15.537l18.09-17.981-1.49-1.484-18.093 17.983v-15.442h-2.109v19.022h1.055Zm-45.183.001L318 263.863h-1.054v-19.022h2.109v15.442l18.093-17.983 1.49 1.484-18.09 17.981h15.536v2.099Zm-81.35-.001 18.084.001v-2.099h-15.536l18.09-17.981-1.49-1.484-18.094 17.983v-15.442h-2.108v19.022h1.054Zm-45.184.001-18.083-.001h-1.055v-19.022h2.109v15.442l18.094-17.983 1.491 1.484-18.091 17.981h15.535v2.099Zm-81.35-.001 18.084.001v-2.099h-15.535l18.09-17.981-1.49-1.484-18.094 17.983v-15.442h-2.109v19.022h1.054Zm-45.182.001-18.084-.001H63.88v-19.022h2.109v15.442L84.083 242.3l1.49 1.484-18.09 17.981h15.535v2.099Zm-81.35-.001 18.084.001v-2.099H4.216l18.09-17.981-1.49-1.484-18.094 17.983v-15.442H.613v19.022h1.055Zm587.481-60.405h-19.138v-19.02h2.109v15.443l18.093-17.985 1.49 1.486-18.09 17.978h15.536v2.098Zm-81.35 0h18.084v-2.098h-15.536l18.09-17.978-1.49-1.486-18.093 17.985v-15.443h-2.109v19.02h1.054Zm-45.182 0h-19.139v-19.02h2.109v15.443l18.093-17.985 1.491 1.486-18.091 17.978h15.537v2.098Zm-81.35 0h18.084v-2.098h-15.537l18.09-17.978-1.49-1.486-18.093 17.985v-15.443h-2.109v19.02h1.055Zm-45.183 0h-19.138v-19.02h2.109v15.442l18.093-17.984 1.49 1.486-18.09 17.978h15.536v2.098Zm-81.35 0h18.084v-2.098h-15.536l18.09-17.978-1.49-1.486-18.094 17.984v-15.442h-2.108v19.02h1.054Zm-45.184 0h-19.138v-19.02h2.109v15.442l18.094-17.984 1.491 1.486-18.091 17.978h15.535v2.098Zm-81.35 0h18.084v-2.098h-15.535l18.09-17.978-1.49-1.486-18.094 17.984v-15.442h-2.109v19.02h1.054Zm-45.182 0H63.88v-19.02h2.109v15.442l18.094-17.984 1.49 1.486-18.09 17.978h15.535v2.098Zm-81.35 0h18.084v-2.098H4.216l18.09-17.978-1.49-1.486L2.723 199.88v-15.442H.613v19.02h1.055Zm587.481-60.399h-19.138v-19.023h2.109v15.442l18.093-17.981 1.49 1.482-18.09 17.982h15.536v2.098Zm-81.35 0h18.084v-2.098h-15.536l18.09-17.982-1.49-1.482-18.093 17.981v-15.442h-2.109v19.023h1.054Zm-45.182 0h-19.139v-19.023h2.109v15.442l18.093-17.981 1.491 1.482-18.091 17.982h15.537v2.098Zm-81.35 0h18.084v-2.098h-15.537l18.09-17.982-1.49-1.482-18.093 17.981v-15.442h-2.109v19.023h1.055Zm-45.183 0h-19.138v-19.023h2.109v15.442l18.093-17.981 1.49 1.482-18.09 17.982h15.536v2.098Zm-81.35 0h18.084v-2.098h-15.536l18.09-17.982-1.49-1.482-18.094 17.981v-15.442h-2.108v19.023h1.054Zm-45.184 0h-19.138v-19.023h2.109v15.442l18.094-17.981 1.491 1.482-18.091 17.982h15.535v2.098Zm-81.35 0h18.084v-2.098h-15.535l18.09-17.982-1.49-1.482-18.094 17.981v-15.442h-2.109v19.023h1.054Zm-45.182 0H63.88v-19.023h2.109v15.442l18.094-17.981 1.49 1.482-18.09 17.982h15.535v2.098Zm-81.35 0h18.084v-2.098H4.216l18.09-17.982-1.49-1.482-18.094 17.981v-15.442H.614v19.023h1.054Zm587.481-60.4-18.084-.003h-1.054V63.637h2.109v15.442l18.093-17.985 1.49 1.486-18.09 17.978 15.536.004v2.098Zm-81.35-.003 18.084.004v-2.098l-15.536-.004 18.09-17.978-1.49-1.486-18.093 17.985V63.637h-2.109v19.02h1.054Zm-45.182.004-18.084-.004h-1.055V63.637h2.109v15.442l18.093-17.985 1.491 1.486-18.091 17.978 15.537.004v2.098Zm-81.35-.004 18.084.004v-2.098l-15.537-.004 18.09-17.978-1.49-1.486-18.093 17.985V63.637h-2.109v19.02h1.055Zm-45.183.004L318 82.656h-1.054V63.637h2.109v15.442l18.093-17.985 1.49 1.486-18.09 17.978 15.536.004v2.098Zm-81.35-.004 18.084.004v-2.098l-15.536-.004 18.09-17.978-1.49-1.486-18.094 17.985V63.637h-2.108v19.02h1.054Zm-45.184.004-18.083-.004h-1.055V63.637h2.109v15.442l18.094-17.985 1.491 1.486-18.091 17.978 15.535.004v2.098Zm-81.35-.004 18.084.004v-2.098l-15.535-.004 18.09-17.978-1.49-1.486-18.094 17.985V63.637h-2.109v19.02h1.054Zm-45.182.004-18.084-.004H63.88V63.637h2.109v15.442l18.094-17.985 1.49 1.486-18.09 17.978 15.535.004v2.098Zm-81.35-.004 18.084.004v-2.098l-15.536-.004 18.09-17.978-1.49-1.486L2.723 79.08V63.637H.614v19.02h1.054Zm587.481-60.399h-19.138V3.234h2.109v15.443L590.213.695l1.49 1.483-18.09 17.981h15.536v2.098Zm-81.35 0h18.084V20.16h-15.536l18.09-17.981-1.49-1.483-18.093 17.981V3.234h-2.109v19.024h1.054Zm-45.182 0h-19.139V3.234h2.109v15.442L463.68.696l1.491 1.482-18.091 17.981h15.537v2.098Zm-81.35 0h18.084V20.16h-15.537l18.09-17.981-1.49-1.483-18.093 17.981V3.234h-2.109v19.024h1.055Zm-45.183 0h-19.138V3.234h2.109v15.442L337.148.696l1.49 1.482-18.09 17.981h15.536v2.098Zm-81.35 0h18.084V20.16h-15.536l18.09-17.981-1.49-1.483-18.094 17.981.001-15.442h-2.109v19.024h1.054Zm-45.184 0h-19.138V3.234h2.109v15.442L210.615.696l1.491 1.482-18.091 17.981h15.535v2.098Zm-81.35 0h18.084V20.16h-15.535l18.09-17.981-1.49-1.483-18.094 17.981V3.234h-2.109v19.024h1.054Zm-45.182 0H63.88V3.234h2.109v15.442L84.083.696l1.49 1.482-18.09 17.981h15.535v2.098Zm-81.35 0h18.084V20.16H4.216l18.09-17.981-1.49-1.483-18.093 17.98V3.234H.614v19.024h1.054Z" fill="url(#a)"/><defs><linearGradient id="a" x1="592" y1="566" x2="-10.941" y2="-11.932" gradientUnits="userSpaceOnUse"><stop stop-color="#3AB14A"/><stop offset="1" stop-color="#F4F2F0"/></linearGradient></defs></svg>