<svg width="637" height="690" viewBox="0 0 637 690" fill="none" xmlns="http://www.w3.org/2000/svg"><g clip-path="url(#a)"><path fill-rule="evenodd" clip-rule="evenodd" d="M634.615 25.48V4.471h-2.345V22.52L612.176 1.506l-1.659 1.731 20.097 21.017h-17.257v2.45h21.258v-1.225Zm0 73.49V77.964h-2.345V96.01l-20.094-21.014-1.659 1.731 20.097 21.018h-17.257v2.449h21.258V98.97Zm0 52.485v22.231h-21.258v-2.449h17.257l-20.097-21.018 1.659-1.731 20.094 21.014v-18.047h2.345Zm0 94.498v-21.007h-2.345v18.047l-20.094-21.014-1.659 1.731 20.097 21.018h-17.257v2.449h21.258v-1.224Zm0 52.484v22.232h-21.258v-2.45h17.257l-20.097-21.017 1.659-1.732 20.094 21.014v-18.047h2.345Zm0 94.498v-21.007h-2.345v18.048l-20.094-21.014-1.659 1.731 20.097 21.017h-17.257v2.45h21.258v-1.225Zm0 52.486v22.231h-21.258v-2.45h17.257l-20.097-21.018 1.659-1.731 20.094 21.014v-18.046h2.345Zm0 94.497v-21.006h-2.345v18.046l-20.094-21.014-1.659 1.731 20.097 21.018h-17.257v2.45h21.258v-1.225Zm0 52.485v22.231h-21.258v-2.45h17.257l-20.097-21.018 1.659-1.731 20.094 21.014v-18.046h2.345Zm0 94.497v-21.006h-2.345v18.046l-20.094-21.014-1.659 1.731 20.097 21.019h-17.257v2.449h21.258V686.9Zm-67.5-682.428v22.232h-21.259v-2.45h17.258L543.017 3.237l1.659-1.731L564.77 22.52V4.472h2.345Zm0 94.498V77.964h-2.345V96.01l-20.094-21.014-1.659 1.731 20.097 21.018h-17.258v2.449h21.259V98.97Zm0 52.485v22.231h-21.259v-2.449h17.258l-20.097-21.018 1.659-1.731 20.094 21.014v-18.047h2.345Zm0 94.498v-21.007h-2.345v18.047l-20.094-21.014-1.659 1.731 20.097 21.018h-17.258v2.449h21.259v-1.224Zm0 52.484v22.232h-21.259v-2.45h17.258l-20.097-21.017 1.659-1.732 20.094 21.014v-18.047h2.345Zm0 94.498v-21.007h-2.345v18.048l-20.094-21.014-1.659 1.731 20.097 21.017h-17.258v2.45h21.259v-1.225Zm0 52.486v22.231h-21.259v-2.45h17.258l-20.097-21.018 1.659-1.731 20.094 21.014v-18.046h2.345Zm0 94.497v-21.006h-2.345v18.046l-20.094-21.014-1.659 1.731 20.097 21.018h-17.258v2.45h21.259v-1.225Zm0 52.485v22.231h-21.259v-2.45h17.258l-20.097-21.018 1.659-1.731 20.094 21.014v-18.046h2.345Zm0 94.497v-21.006h-2.345v18.046l-20.094-21.014-1.659 1.731 20.097 21.019h-17.258v2.449h21.259V686.9Zm-67.5-682.428-.001 21.007v1.225h-21.258v-2.45h17.257L475.517 3.237l1.658-1.731L497.27 22.52V4.472h2.345Zm-.001 94.498.001-21.006h-2.345l-.001 18.047-20.094-21.014-1.658 1.731 20.096 21.018h-17.257v2.449h21.258V98.97Zm.001 52.485-.001 21.006v1.225h-21.258v-2.449h17.257l-20.096-21.018 1.658-1.731 20.094 21.014.001-18.047h2.345Zm-.001 94.498.001-21.007h-2.345l-.001 18.047-20.094-21.014-1.658 1.731 20.096 21.018h-17.257v2.449h21.258v-1.224Zm.001 52.484-.001 21.007v1.225h-21.258v-2.45h17.257l-20.096-21.017 1.658-1.732 20.094 21.014.001-18.047h2.345Zm-.001 94.498.001-21.007h-2.345l-.001 18.048-20.094-21.014-1.658 1.731 20.096 21.017h-17.257v2.45h21.258v-1.225Zm.001 52.486-.001 21.006v1.225h-21.258v-2.45h17.257l-20.096-21.018 1.658-1.731 20.094 21.014.001-18.046h2.345Zm-.001 94.497.001-21.006h-2.345l-.001 18.046-20.094-21.014-1.658 1.731 20.096 21.018h-17.257v2.45h21.258v-1.225Zm.001 52.485-.001 21.006v1.225h-21.258v-2.45h17.257l-20.096-21.018 1.658-1.731 20.094 21.014.001-18.046h2.345Zm-.001 94.497.001-21.006h-2.345l-.001 18.046-20.094-21.014-1.658 1.731 20.096 21.019h-17.257v2.449h21.258V686.9Zm-67.5-682.428v22.232h-21.258v-2.45h17.257L408.016 3.237l1.659-1.731 20.094 21.014V4.472h2.345Zm0 94.498V77.964h-2.345V96.01l-20.094-21.014-1.659 1.731 20.097 21.018h-17.257v2.449h21.258V98.97Zm0 52.485v22.231h-21.258v-2.449h17.257l-20.097-21.018 1.659-1.731 20.094 21.014v-18.047h2.345Zm0 94.498v-21.007h-2.345v18.047l-20.094-21.014-1.659 1.731 20.097 21.018h-17.257v2.449h21.258v-1.224Zm0 52.484v22.232h-21.258v-2.45h17.257l-20.097-21.017 1.659-1.732 20.094 21.014v-18.047h2.345Zm0 94.498v-21.007h-2.345v18.048l-20.094-21.014-1.659 1.731 20.097 21.017h-17.257v2.45h21.258v-1.225Zm0 52.486v22.231h-21.258v-2.45h17.257l-20.097-21.018 1.659-1.731 20.094 21.014v-18.046h2.345Zm0 94.497v-21.006h-2.345v18.046l-20.094-21.014-1.659 1.731 20.097 21.018h-17.257v2.45h21.258v-1.225Zm0 52.485v22.231h-21.258v-2.45h17.257l-20.097-21.018 1.659-1.731 20.094 21.014v-18.046h2.345Zm0 94.497v-21.006h-2.345v18.046l-20.094-21.014-1.659 1.731 20.097 21.019h-17.257v2.449h21.258V686.9Zm-67.5-682.428v22.232h-21.259v-2.45h17.258L340.516 3.237l1.659-1.731 20.094 21.014V4.472h2.345Zm0 94.498V77.964h-2.345V96.01l-20.094-21.014-1.659 1.731 20.097 21.018h-17.258v2.449h21.259V98.97Zm0 52.485v22.231h-21.259v-2.449h17.258l-20.097-21.018 1.659-1.731 20.094 21.014v-18.047h2.345Zm0 94.498v-21.007h-2.345v18.047l-20.094-21.014-1.659 1.731 20.097 21.018h-17.258v2.449h21.259v-1.224Zm0 52.484v22.232h-21.259v-2.45h17.258l-20.097-21.017 1.659-1.732 20.094 21.014v-18.047h2.345Zm0 94.498v-21.007h-2.345v18.048l-20.094-21.014-1.659 1.731 20.097 21.017h-17.258v2.45h21.259v-1.225Zm0 52.486v22.231h-21.259v-2.45h17.258l-20.097-21.018 1.659-1.731 20.094 21.014v-18.046h2.345Zm0 94.497v-21.006h-2.345v18.046l-20.094-21.014-1.659 1.731 20.097 21.018h-17.258v2.45h21.259v-1.225Zm0 52.485v22.231h-21.259v-2.45h17.258l-20.097-21.018 1.659-1.731 20.094 21.014v-18.046h2.345Zm0 94.497v-21.006h-2.345v18.046l-20.094-21.014-1.659 1.731 20.097 21.019h-17.258v2.449h21.259V686.9Zm-67.5-682.428-.001 21.007v1.225h-21.258v-2.45h17.258L273.016 3.237l1.658-1.731 20.094 21.014.001-18.048h2.345Zm-.001 94.498.001-21.006h-2.345l-.001 18.047-20.094-21.014-1.658 1.731 20.097 21.018h-17.258v2.449h21.258V98.97Zm.001 52.485-.001 21.006v1.225h-21.258v-2.449h17.258l-20.097-21.018 1.658-1.731 20.094 21.014.001-18.047h2.345Zm-.001 94.498.001-21.007h-2.345l-.001 18.047-20.094-21.014-1.658 1.731 20.097 21.018h-17.258v2.449h21.258v-1.224Zm.001 52.484-.001 21.007v1.225h-21.258v-2.45h17.258l-20.097-21.017 1.658-1.732 20.094 21.014.001-18.047h2.345Zm-.001 94.498.001-21.007h-2.345l-.001 18.048-20.094-21.014-1.658 1.731 20.097 21.017h-17.258v2.45h21.258v-1.225Zm.001 52.486-.001 21.006v1.225h-21.258v-2.45h17.258l-20.097-21.018 1.658-1.731 20.094 21.014.001-18.046h2.345Zm-.001 94.497.001-21.006h-2.345l-.001 18.046-20.094-21.014-1.658 1.731 20.097 21.018h-17.258v2.45h21.258v-1.225Zm.001 52.485-.001 21.006v1.225h-21.258v-2.45h17.258l-20.097-21.018 1.658-1.731 20.094 21.014.001-18.046h2.345Zm-.001 94.497.001-21.006h-2.345l-.001 18.046-20.094-21.014-1.658 1.731 20.097 21.019h-17.258v2.449h21.258V686.9ZM229.608 4.472v22.232h-21.256v-2.45h17.258L205.511 3.237l1.661-1.731 20.091 21.014V4.472h2.345Zm0 94.498V77.964h-2.345V96.01l-20.091-21.014-1.661 1.731 20.099 21.018h-17.258v2.449h21.256V98.97Zm0 52.485v22.231h-21.256v-2.449h17.258l-20.099-21.018 1.661-1.731 20.091 21.014v-18.047h2.345Zm0 94.498v-21.007h-2.345v18.047l-20.091-21.014-1.661 1.731 20.099 21.018h-17.258v2.449h21.256v-1.224Zm0 52.484v22.232h-21.256v-2.45h17.258l-20.099-21.017 1.661-1.732 20.091 21.014v-18.047h2.345Zm0 94.498v-21.007h-2.345v18.048l-20.091-21.014-1.661 1.731 20.099 21.017h-17.258v2.45h21.256v-1.225Zm0 52.486v22.231h-21.256v-2.45h17.258l-20.099-21.018 1.661-1.731 20.091 21.014v-18.046h2.345Zm0 94.497v-21.006h-2.345v18.046l-20.091-21.014-1.661 1.731 20.099 21.018h-17.258v2.45h21.256v-1.225Zm0 52.485v22.231h-21.256v-2.45h17.258l-20.099-21.018 1.661-1.731 20.091 21.014v-18.046h2.345Zm0 94.497v-21.006h-2.345v18.046l-20.091-21.014-1.661 1.731 20.099 21.019h-17.258v2.449h21.256V686.9ZM162.109 4.472v22.232H140.85v-2.45h17.257L138.012 3.237l1.657-1.731 20.095 21.014V4.472h2.345Zm0 94.498V77.964h-2.345V96.01l-20.095-21.014-1.657 1.731 20.095 21.018H140.85v2.449h21.259V98.97Zm0 52.485v22.231H140.85v-2.449h17.257l-20.095-21.018 1.657-1.731 20.095 21.014v-18.047h2.345Zm0 94.498v-21.007h-2.345v18.047l-20.095-21.014-1.657 1.731 20.095 21.018H140.85v2.449h21.259v-1.224Zm0 52.484v22.232H140.85v-2.45h17.257l-20.095-21.017 1.657-1.732 20.095 21.014v-18.047h2.345Zm0 94.498v-21.007h-2.345v18.048l-20.095-21.014-1.657 1.731 20.095 21.017H140.85v2.45h21.259v-1.225Zm0 52.486v22.231H140.85v-2.45h17.257l-20.095-21.018 1.657-1.731 20.095 21.014v-18.046h2.345Zm0 94.497v-21.006h-2.345v18.046l-20.095-21.014-1.657 1.731 20.095 21.018H140.85v2.45h21.259v-1.225Zm0 52.485v22.231H140.85v-2.45h17.257l-20.095-21.018 1.657-1.731 20.095 21.014v-18.046h2.345Zm0 94.497v-21.006h-2.345v18.046l-20.095-21.014-1.657 1.731 20.095 21.019H140.85v2.449h21.259V686.9ZM94.61 4.472l-.003 21.007v1.225H73.35v-2.45h17.26L70.51 3.237l1.66-1.731L92.263 22.52l.004-18.048h2.344Zm-.003 94.498.004-21.006h-2.345l-.004 18.047L72.17 74.997l-1.661 1.731 20.099 21.018H73.35v2.449h21.256V98.97Zm.004 52.485-.004 21.006v1.225H73.35v-2.449h17.26l-20.1-21.018 1.66-1.731 20.092 21.014.004-18.047h2.344Zm-.004 94.498.004-21.007h-2.345l-.004 18.047-20.091-21.014-1.661 1.731 20.099 21.018H73.35v2.449h21.256v-1.224Zm.004 52.484-.004 21.007v1.225H73.35v-2.45h17.26l-20.1-21.017 1.66-1.732 20.092 21.014.004-18.047h2.344Zm-.004 94.498.004-21.007h-2.345l-.004 18.048-20.091-21.014-1.661 1.731 20.099 21.017H73.35v2.45h21.256v-1.225Zm.004 52.486-.004 21.006v1.225H73.35v-2.45h17.26l-20.1-21.018 1.66-1.731 20.092 21.014.004-18.046h2.344Zm-.004 94.497.004-21.006h-2.345l-.004 18.046-20.091-21.014-1.661 1.731 20.099 21.018H73.35v2.45h21.256v-1.225Zm.004 52.485-.004 21.006v1.225H73.35v-2.45h17.26l-20.1-21.018 1.66-1.731 20.092 21.014.004-18.046h2.344Zm-.004 94.497.004-21.006h-2.345l-.004 18.046-20.091-21.014-1.661 1.731 20.099 21.019H73.35v2.449h21.256V686.9ZM27.108 4.472v22.232H5.849v-2.45h17.257L3.011 3.237l1.657-1.731L24.763 22.52V4.472h2.345Zm0 94.498V77.964h-2.345V96.01L4.668 74.997l-1.657 1.731 20.095 21.017H5.85v2.45h21.259V98.97Zm0 52.485v22.231H5.849v-2.449h17.257L3.011 150.219l1.657-1.731 20.095 21.014v-18.047h2.345Zm0 94.498v-21.007h-2.345v18.047L4.668 221.979l-1.657 1.731 20.095 21.018H5.85v2.449h21.259v-1.224Zm0 52.484v22.232H5.849v-2.45h17.257L3.011 297.202l1.657-1.732 20.095 21.014v-18.047h2.345Zm0 94.498v-21.007h-2.345v18.048L4.668 368.962l-1.657 1.731 20.095 21.017H5.85v2.45h21.259v-1.225Zm0 52.486v22.231H5.849v-2.45h17.257L3.011 444.184l1.657-1.731 20.095 21.014v-18.046h2.345Zm0 94.497v-21.006h-2.345v18.046L4.668 515.944l-1.657 1.731 20.095 21.018H5.85v2.45h21.259v-1.225Zm0 52.485v22.231H5.849v-2.45h17.257L3.011 591.166l1.657-1.731 20.095 21.014v-18.046h2.345Zm0 94.497v-21.006h-2.345v18.046L4.668 662.926l-1.657 1.731 20.095 21.019H5.85v2.449h21.259V686.9Z" fill="url(#b)"/></g><defs><linearGradient id="b" x1="635" y1="688" x2="-358.834" y2="-847.527" gradientUnits="userSpaceOnUse"><stop stop-color="#fff"/><stop offset="1" stop-color="#3AB14A"/></linearGradient><clipPath id="a"><path fill="#fff" transform="rotate(90 318.5 318.5)" d="M0 0h690v637H0z"/></clipPath></defs></svg>