<svg width="658" height="568" viewBox="0 0 658 568" fill="none" xmlns="http://www.w3.org/2000/svg"><path fill-rule="evenodd" clip-rule="evenodd" d="m657.518 24.48.001-21.008h-2.441V21.52L634.164.506l-1.727 1.731 20.917 21.017h-17.962v2.45h22.126v-1.225Zm0 73.49.001-21.006h-2.441V95.01l-20.914-21.014-1.727 1.731 20.917 21.018h-17.962v2.45h22.126V97.97Zm.001 52.485-.001 21.006v1.225h-22.126v-2.449h17.962l-20.917-21.018 1.727-1.731 20.914 21.014v-18.047h2.441Zm-.001 94.498.001-21.007h-2.441v18.047l-20.914-21.014-1.727 1.731 20.917 21.018h-17.962v2.449h22.126v-1.224Zm.001 52.484-.001 21.007v1.225h-22.126v-2.45h17.962l-20.917-21.017 1.727-1.732 20.914 21.014v-18.047h2.441Zm-.001 94.498.001-21.007h-2.441v18.048l-20.914-21.014-1.727 1.731 20.917 21.017h-17.962v2.45h22.126v-1.225Zm.001 52.486-.001 21.006v1.225h-22.126v-2.45h17.962l-20.917-21.018 1.727-1.731 20.914 21.014v-18.046h2.441Zm-.001 94.497.001-21.006h-2.441v18.046l-20.914-21.014-1.727 1.731 20.917 21.018h-17.962v2.45h22.126v-1.225Zm.001 52.485-.001 21.006v1.225h-22.126v-2.449h17.962l-20.917-21.019 1.727-1.731 20.914 21.014v-18.046h2.441Zm-.001 94.497.001-21.006h-2.441v18.046l-20.914-21.014-1.727 1.731 20.917 21.019h-17.962v2.449h22.126V685.9ZM587.263 3.472v22.232h-22.126v-2.45h17.962L562.182 2.237l1.726-1.731 20.914 21.014V3.472h2.441Zm0 94.498V76.964h-2.441V95.01l-20.914-21.014-1.726 1.731 20.917 21.018h-17.962v2.45h22.126V97.97Zm0 52.485v22.231h-22.126v-2.449h17.962l-20.917-21.018 1.726-1.731 20.914 21.014v-18.047h2.441Zm0 94.498v-21.007h-2.441v18.047l-20.914-21.014-1.726 1.731 20.917 21.018h-17.962v2.449h22.126v-1.224Zm0 52.484v22.232h-22.126v-2.45h17.962l-20.917-21.017 1.726-1.732 20.914 21.014v-18.047h2.441Zm0 94.498v-21.007h-2.441v18.048l-20.914-21.014-1.726 1.731 20.917 21.017h-17.962v2.45h22.126v-1.225Zm0 52.486v22.231h-22.126v-2.45h17.962l-20.917-21.018 1.726-1.731 20.914 21.014v-18.046h2.441Zm0 94.497v-21.006h-2.441v18.046l-20.914-21.014-1.726 1.731 20.917 21.018h-17.962v2.45h22.126v-1.225Zm0 52.485v22.231h-22.126v-2.449h17.962l-20.917-21.019 1.726-1.731 20.914 21.014v-18.046h2.441Zm0 94.497v-21.006h-2.441v18.046l-20.914-21.014-1.726 1.731 20.917 21.019h-17.962v2.449h22.126V685.9ZM517.008 3.472l-.001 21.007v1.225h-22.126v-2.45h17.962L491.926 2.237l1.727-1.731 20.914 21.014V3.472h2.441Zm-.001 94.498.001-21.006h-2.441V95.01l-20.914-21.014-1.727 1.731 20.917 21.018h-17.962v2.45h22.126V97.97Zm.001 52.485-.001 21.006v1.225h-22.126v-2.449h17.962l-20.917-21.018 1.727-1.731 20.914 21.014v-18.047h2.441Zm-.001 94.498.001-21.007h-2.441v18.047l-20.914-21.014-1.727 1.731 20.917 21.018h-17.962v2.449h22.126v-1.224Zm.001 52.484-.001 21.007v1.225h-22.126v-2.45h17.962l-20.917-21.017 1.727-1.732 20.914 21.014v-18.047h2.441Zm-.001 94.498.001-21.007h-2.441v18.048l-20.914-21.014-1.727 1.731 20.917 21.017h-17.962v2.45h22.126v-1.225Zm.001 52.486-.001 21.006v1.225h-22.126v-2.45h17.962l-20.917-21.018 1.727-1.731 20.914 21.014v-18.046h2.441Zm-.001 94.497.001-21.006h-2.441v18.046l-20.914-21.014-1.727 1.731 20.917 21.018h-17.962v2.45h22.126v-1.225Zm.001 52.485-.001 21.006v1.225h-22.126v-2.449h17.962l-20.917-21.019 1.727-1.731 20.914 21.014v-18.046h2.441Zm-.001 94.497.001-21.006h-2.441v18.046l-20.914-21.014-1.727 1.731 20.917 21.019h-17.962v2.449h22.126V685.9ZM446.752 3.472v22.232h-22.126v-2.45h17.962L421.671 2.237l1.726-1.731 20.914 21.014.001-18.048h2.44Zm0 94.498V76.964h-2.44l-.001 18.047-20.914-21.014-1.726 1.731 20.917 21.018h-17.962v2.45h22.126V97.97Zm0 52.485v22.231h-22.126v-2.449h17.962l-20.917-21.018 1.726-1.731 20.914 21.014.001-18.047h2.44Zm0 94.498v-21.007h-2.44l-.001 18.047-20.914-21.014-1.726 1.731 20.917 21.018h-17.962v2.449h22.126v-1.224Zm0 52.484v22.232h-22.126v-2.45h17.962l-20.917-21.017 1.726-1.732 20.914 21.014.001-18.047h2.44Zm0 94.498v-21.007h-2.44l-.001 18.048-20.914-21.014-1.726 1.731 20.917 21.017h-17.962v2.45h22.126v-1.225Zm0 52.486v22.231h-22.126v-2.45h17.962l-20.917-21.018 1.726-1.731 20.914 21.014.001-18.046h2.44Zm0 94.497v-21.006h-2.44l-.001 18.046-20.914-21.014-1.726 1.731 20.917 21.018h-17.962v2.45h22.126v-1.225Zm0 52.485v22.231h-22.126v-2.45h17.962l-20.917-21.018 1.726-1.731 20.914 21.014.001-18.046h2.44Zm0 94.497v-21.006h-2.44l-.001 18.046-20.914-21.014-1.726 1.731 20.917 21.019h-17.962v2.449h22.126V685.9ZM376.497 3.472v22.232H354.37v-2.45h17.962L351.415 2.237l1.727-1.731 20.914 21.014V3.472h2.441Zm0 94.498V76.964h-2.441V95.01l-20.914-21.014-1.727 1.731 20.917 21.018H354.37v2.45h22.127V97.97Zm0 52.485v22.231H354.37v-2.449h17.962l-20.917-21.018 1.727-1.731 20.914 21.014v-18.047h2.441Zm0 94.498v-21.007h-2.441v18.047l-20.914-21.014-1.727 1.731 20.917 21.018H354.37v2.449h22.127v-1.224Zm0 52.484v22.232H354.37v-2.45h17.962l-20.917-21.017 1.727-1.732 20.914 21.014v-18.047h2.441Zm0 94.498v-21.007h-2.441v18.048l-20.914-21.014-1.727 1.731 20.917 21.017H354.37v2.45h22.127v-1.225Zm0 52.486v22.231H354.37v-2.45h17.962l-20.917-21.018 1.727-1.731 20.914 21.014v-18.046h2.441Zm-.001 94.497v-21.006h-2.44v18.046l-20.914-21.014-1.727 1.731 20.917 21.018H354.37v2.45h22.126v-1.225Zm0 52.485v22.231H354.37v-2.45h17.962l-20.917-21.018 1.727-1.731 20.914 21.014v-18.046h2.44Zm0 94.497v-21.006h-2.44v18.046l-20.914-21.014-1.727 1.731 20.917 21.019H354.37v2.449h22.126V685.9ZM306.241 3.472v22.232h-22.126v-2.45h17.962L281.16 2.237l1.726-1.731L303.8 21.52l.001-18.048h2.44Zm0 94.498V76.964h-2.44L303.8 95.01l-20.914-21.014-1.726 1.731 20.917 21.018h-17.962v2.45h22.126V97.97Zm0 52.485v22.231h-22.126v-2.449h17.962l-20.917-21.018 1.726-1.731 20.914 21.014.001-18.047h2.44Zm0 94.498v-21.007h-2.44l-.001 18.047-20.914-21.014-1.726 1.731 20.917 21.018h-17.962v2.449h22.126v-1.224Zm0 52.484v22.232h-22.126v-2.45h17.962l-20.917-21.017 1.726-1.732 20.914 21.014.001-18.047h2.44Zm0 94.498v-21.007h-2.44l-.001 18.048-20.914-21.014-1.726 1.731 20.917 21.017h-17.962v2.45h22.126v-1.225Zm0 52.486v22.231h-22.126v-2.45h17.962l-20.917-21.018 1.726-1.731 20.914 21.014.001-18.046h2.44Zm0 94.497v-21.006h-2.44l-.001 18.046-20.914-21.014-1.726 1.731 20.917 21.018h-17.962v2.45h22.126v-1.225Zm0 52.485v22.231h-22.126v-2.45h17.962l-20.917-21.018 1.726-1.731 20.914 21.014.001-18.046h2.44Zm0 94.497v-21.006h-2.44l-.001 18.046-20.914-21.014-1.726 1.731 20.917 21.019h-17.962v2.449h22.126V685.9ZM235.98 3.472v22.232h-22.123v-2.45h17.962L210.9 2.237l1.729-1.731 20.91 21.014V3.472h2.441Zm0 94.498V76.964h-2.441V95.01l-20.91-21.014-1.729 1.731 20.919 21.018h-17.962v2.45h22.123V97.97Zm0 52.485v22.231h-22.123v-2.449h17.962L210.9 149.219l1.729-1.731 20.91 21.014v-18.047h2.441Zm0 94.498v-21.007h-2.441v18.047l-20.91-21.014-1.729 1.731 20.919 21.018h-17.962v2.449h22.123v-1.224Zm0 52.484v22.232h-22.123v-2.45h17.962L210.9 296.202l1.729-1.732 20.91 21.014v-18.047h2.441Zm0 94.498v-21.007h-2.441v18.048l-20.91-21.014-1.729 1.731 20.919 21.017h-17.962v2.45h22.123v-1.225Zm0 52.486v22.231h-22.123v-2.45h17.962L210.9 443.184l1.729-1.731 20.91 21.014v-18.046h2.441Zm0 94.497v-21.006h-2.441v18.046l-20.91-21.014-1.729 1.731 20.919 21.018h-17.962v2.45h22.123v-1.225Zm0 52.485v22.231h-22.123v-2.45h17.962L210.9 590.166l1.729-1.731 20.91 21.014v-18.046h2.441Zm0 94.497v-21.006h-2.441v18.046l-20.91-21.014-1.729 1.731 20.919 21.019h-17.962v2.449h22.123V685.9ZM165.726 3.472v22.232h-22.127v-2.45h17.962L140.646 2.237l1.725-1.731 20.915 21.014V3.472h2.44Zm0 94.498V76.964h-2.44V95.01l-20.915-21.014-1.725 1.731 20.915 21.018h-17.962v2.45h22.127V97.97Zm0 52.485v22.231h-22.127v-2.449h17.962l-20.915-21.018 1.725-1.731 20.915 21.014v-18.047h2.44Zm0 94.498v-21.007h-2.44v18.047l-20.915-21.014-1.725 1.731 20.915 21.018h-17.962v2.449h22.127v-1.224Zm0 52.484v22.232h-22.127v-2.45h17.962l-20.915-21.017 1.725-1.732 20.915 21.014v-18.047h2.44Zm0 94.498v-21.007h-2.44v18.048l-20.915-21.014-1.725 1.731 20.915 21.017h-17.962v2.45h22.127v-1.225Zm0 52.486v22.231h-22.127v-2.45h17.962l-20.915-21.018 1.725-1.731 20.915 21.014v-18.046h2.44Zm0 94.497v-21.006h-2.44v18.046l-20.915-21.014-1.725 1.731 20.915 21.018h-17.962v2.45h22.127v-1.225Zm0 52.485v22.231h-22.127v-2.45h17.962l-20.915-21.018 1.725-1.731 20.915 21.014v-18.046h2.44Zm0 94.497v-21.006h-2.44v18.046l-20.915-21.014-1.725 1.731 20.915 21.019h-17.962v2.449h22.127V685.9ZM95.473 3.472l-.004 21.007v1.225H73.346v-2.45h17.962L70.388 2.237l1.73-1.731 20.91 21.014.004-18.048h2.44Zm-.004 94.498.004-21.006h-2.44l-.005 18.047-20.91-21.014-1.73 1.731 20.92 21.018H73.346v2.45h22.123V97.97Zm.004 52.485-.004 21.006v1.225H73.346v-2.449h17.962l-20.92-21.018 1.73-1.731 20.91 21.014.004-18.047h2.44Zm-.004 94.498.004-21.007h-2.44l-.005 18.047-20.91-21.014-1.73 1.731 20.92 21.018H73.346v2.449h22.123v-1.224Zm.004 52.484-.004 21.007v1.225H73.346v-2.45h17.962l-20.92-21.017 1.73-1.732 20.91 21.014.004-18.047h2.44Zm-.004 94.498.004-21.007h-2.44l-.005 18.048-20.91-21.014-1.73 1.731 20.92 21.017H73.346v2.45h22.123v-1.225Zm.004 52.486-.004 21.006v1.225H73.346v-2.45h17.962l-20.92-21.018 1.73-1.731 20.91 21.014.004-18.046h2.44Zm-.004 94.497.004-21.006h-2.44l-.005 18.046-20.91-21.014-1.73 1.731 20.92 21.018H73.346v2.45h22.123v-1.225Zm.004 52.485-.004 21.006v1.225H73.346v-2.45h17.962l-20.92-21.018 1.73-1.731 20.91 21.014.004-18.046h2.44Zm-.004 94.497.004-21.006h-2.44l-.005 18.046-20.91-21.014-1.73 1.731 20.92 21.019H73.346v2.449h22.122V685.9ZM25.215 3.472v22.232H3.088v-2.45H21.05L.135 2.237 1.86.506 22.775 21.52V3.472h2.44Zm0 94.498V76.964h-2.44V95.01L1.86 73.997.135 75.728 21.05 96.745H3.088v2.45h22.127V97.97Zm0 52.485v22.231H3.088v-2.449H21.05L.135 149.219l1.725-1.731 20.915 21.014v-18.047h2.44Zm0 94.498v-21.007h-2.44v18.047L1.86 220.979.135 222.71l20.915 21.018H3.088v2.449h22.127v-1.224Zm0 52.484v22.232H3.088v-2.45H21.05L.135 296.202l1.725-1.732 20.915 21.014v-18.047h2.44Zm0 94.498v-21.007h-2.44v18.048L1.86 367.962l-1.725 1.731L21.05 390.71H3.088v2.45h22.127v-1.225Zm0 52.486v22.231H3.088v-2.45H21.05L.135 443.184l1.725-1.731 20.915 21.014v-18.046h2.44Zm0 94.497v-21.006h-2.44v18.046L1.86 514.944l-1.725 1.731 20.915 21.018H3.088v2.45h22.127v-1.225Zm0 52.485v22.231H3.088v-2.45H21.05L.135 590.166l1.725-1.731 20.915 21.014v-18.046h2.44Zm0 94.497v-21.006h-2.44v18.046L1.86 661.926l-1.725 1.731 20.915 21.019H3.088v2.449h22.127V685.9Z" fill="url(#a)"/><defs><linearGradient id="a" x1="-.098" y1="687.375" x2="444.179" y2="-2.134" gradientUnits="userSpaceOnUse"><stop stop-color="#3AB14A"/><stop offset="1" stop-color="#fff"/></linearGradient></defs></svg>