<svg width="597" height="304" viewBox="0 0 597 304" fill="none" xmlns="http://www.w3.org/2000/svg"><g clip-path="url(#a)"><path fill-rule="evenodd" clip-rule="evenodd" d="M290.906 11.226V1.97h-1.075v7.951L280.62.664l-.76.762 9.212 9.26h-7.911v1.08h9.745v-.54Zm0 32.378V34.35h-1.075v7.952l-9.211-9.259-.76.763 9.212 9.26h-7.911v1.08h9.745v-.54Zm0 23.124v9.795h-9.745v-1.08h7.911l-9.212-9.26.76-.762 9.211 9.258v-7.951h1.075Zm0 41.634v-9.255h-1.075v7.951L280.62 97.8l-.76.762 9.212 9.26h-7.911v1.079h9.745v-.539Zm0 23.123v9.795h-9.745v-1.079h7.911l-9.212-9.26.76-.763 9.211 9.259v-7.952h1.075Zm0 41.634v-9.255h-1.075v7.951l-9.211-9.258-.76.763 9.212 9.26h-7.911v1.079h9.745v-.54Zm0 23.125v9.794h-9.745v-1.079h7.911l-9.212-9.261.76-.762 9.211 9.258v-7.95h1.075Zm0 41.633v-9.255h-1.075v7.951l-9.211-9.259-.76.763 9.212 9.26h-7.911v1.08h9.745v-.54Zm0 23.124v9.794h-9.745v-1.079h7.911l-9.212-9.26.76-.763 9.211 9.259v-7.951h1.075Zm0 41.634v-9.255h-1.075v7.95l-9.211-9.258-.76.763 9.212 9.26h-7.911v1.079h9.745v-.539ZM259.964 1.971v9.795h-9.745v-1.08h7.911l-9.212-9.26.76-.762 9.211 9.258V1.971h1.075Zm0 41.633V34.35h-1.075v7.952l-9.211-9.259-.76.763 9.212 9.26h-7.911v1.08h9.745v-.54Zm0 23.124v9.795h-9.745v-1.08h7.911l-9.212-9.26.76-.762 9.211 9.258v-7.951h1.075Zm0 41.634v-9.255h-1.075v7.951l-9.211-9.258-.76.762 9.212 9.26h-7.911v1.079h9.745v-.539Zm0 23.123v9.795h-9.745v-1.079h7.911l-9.212-9.26.76-.763 9.211 9.259v-7.952h1.075Zm0 41.634v-9.255h-1.075v7.951l-9.211-9.258-.76.763 9.212 9.26h-7.911v1.079h9.745v-.54Zm0 23.125v9.794h-9.745v-1.079h7.911l-9.212-9.261.76-.762 9.211 9.258v-7.95h1.075Zm0 41.633v-9.255h-1.075v7.951l-9.211-9.259-.76.763 9.212 9.26h-7.911v1.08h9.745v-.54Zm0 23.124v9.794h-9.745v-1.079h7.911l-9.212-9.26.76-.763 9.211 9.259v-7.951h1.075Zm0 41.634v-9.255h-1.075v7.95l-9.211-9.258-.76.763 9.212 9.26h-7.911v1.079h9.745v-.539ZM229.022 1.971v9.795h-9.745v-1.08h7.911l-9.212-9.26.76-.762 9.211 9.258V1.971h1.075Zm0 41.633V34.35h-1.075v7.952l-9.211-9.259-.76.763 9.212 9.26h-7.911v1.08h9.745v-.54Zm0 23.124v9.795h-9.745v-1.08h7.911l-9.212-9.26.76-.762 9.211 9.258v-7.951h1.075Zm0 41.634v-9.255h-1.075v7.951l-9.211-9.258-.76.762 9.212 9.26h-7.911v1.079h9.745v-.539Zm0 23.123v9.795h-9.745v-1.079h7.911l-9.212-9.26.76-.763 9.211 9.259v-7.952h1.075Zm0 41.634v-9.255h-1.075v7.951l-9.211-9.258-.76.763 9.212 9.26h-7.911v1.079h9.745v-.54Zm0 23.125v9.794h-9.745v-1.079h7.911l-9.212-9.261.76-.762 9.211 9.258v-7.95h1.075Zm0 41.633v-9.255h-1.075v7.951l-9.211-9.259-.76.763 9.212 9.26h-7.911v1.08h9.745v-.54Zm0 23.124v9.794h-9.745v-1.079h7.911l-9.212-9.26.76-.763 9.211 9.259v-7.951h1.075Zm0 41.634v-9.255h-1.075v7.95l-9.211-9.258-.76.763 9.212 9.26h-7.911v1.079h9.745v-.539ZM198.08 1.971v9.795h-9.745v-1.08h7.911l-9.212-9.26.76-.762 9.211 9.258V1.971h1.075Zm0 41.633V34.35h-1.075v7.952l-9.211-9.259-.76.763 9.212 9.26h-7.911v1.08h9.745v-.54Zm0 23.124v9.795h-9.745v-1.08h7.911l-9.212-9.26.76-.762 9.211 9.258v-7.951h1.075Zm0 41.634v-9.255h-1.075v7.951l-9.211-9.258-.76.762 9.212 9.26h-7.911v1.079h9.745v-.539Zm0 23.123v9.795h-9.745v-1.079h7.911l-9.212-9.26.76-.763 9.211 9.259v-7.952h1.075Zm0 41.634v-9.255h-1.075v7.951l-9.211-9.258-.76.763 9.212 9.26h-7.911v1.079h9.745v-.54Zm0 23.125v9.794h-9.745v-1.079h7.911l-9.212-9.261.76-.762 9.211 9.258v-7.95h1.075Zm0 41.633v-9.255h-1.075v7.951l-9.211-9.259-.76.763 9.212 9.26h-7.911v1.08h9.745v-.54Zm0 23.124v9.794h-9.745v-1.079h7.911l-9.212-9.26.76-.763 9.211 9.259v-7.951h1.075Zm0 41.634v-9.255h-1.075v7.95l-9.211-9.258-.76.763 9.212 9.26h-7.911v1.079h9.745v-.539ZM167.138 1.971v9.795h-9.745v-1.08h7.911l-9.213-9.26.761-.762 9.211 9.258V1.971h1.075Zm0 41.633V34.35h-1.075v7.952l-9.211-9.259-.761.763 9.213 9.26h-7.911v1.08h9.745v-.54Zm0 23.124v9.795h-9.745v-1.08h7.911l-9.213-9.26.761-.762 9.211 9.258v-7.951h1.075Zm0 41.634v-9.255h-1.075v7.951l-9.211-9.258-.761.762 9.213 9.26h-7.911v1.079h9.745v-.539Zm0 23.123v9.795h-9.745v-1.079h7.911l-9.213-9.26.761-.763 9.211 9.259v-7.952h1.075Zm0 41.634v-9.255h-1.075v7.951l-9.211-9.258-.761.763 9.213 9.26h-7.911v1.079h9.745v-.54Zm0 23.125v9.794h-9.745v-1.079h7.911l-9.213-9.261.761-.762 9.211 9.258v-7.95h1.075Zm0 41.633v-9.255h-1.075v7.951l-9.211-9.259-.761.763 9.213 9.26h-7.911v1.08h9.745v-.54Zm0 23.124v9.794h-9.745v-1.079h7.911l-9.213-9.26.761-.763 9.211 9.259v-7.951h1.075Zm0 41.634v-9.255h-1.075v7.95l-9.211-9.258-.761.763 9.213 9.26h-7.911v1.079h9.745v-.539ZM136.196 1.971v9.795h-9.745v-1.08h7.911l-9.212-9.26.76-.762 9.211 9.258V1.971h1.075Zm0 41.633V34.35h-1.075v7.952l-9.211-9.259-.76.763 9.212 9.26h-7.911v1.08h9.745v-.54Zm0 23.124v9.795h-9.745v-1.08h7.911l-9.212-9.26.76-.762 9.211 9.258v-7.951h1.075Zm0 41.634v-9.255h-1.075v7.951L125.91 97.8l-.76.762 9.212 9.26h-7.911v1.079h9.745v-.539Zm0 23.123v9.795h-9.745v-1.079h7.911l-9.212-9.26.76-.763 9.211 9.259v-7.952h1.075Zm0 41.634v-9.255h-1.075v7.951l-9.211-9.258-.76.763 9.212 9.26h-7.911v1.079h9.745v-.54Zm0 23.125v9.794h-9.745v-1.079h7.911l-9.212-9.261.76-.762 9.211 9.258v-7.95h1.075Zm0 41.633v-9.255h-1.075v7.951l-9.211-9.259-.76.763 9.212 9.26h-7.911v1.08h9.745v-.54Zm0 23.124v9.794h-9.745v-1.079h7.911l-9.212-9.26.76-.763 9.211 9.259v-7.951h1.075Zm0 41.634v-9.255h-1.075v7.95l-9.211-9.258-.76.763 9.212 9.26h-7.911v1.079h9.745v-.539ZM105.251 1.971v9.795h-9.743v-1.08h7.911l-9.214-9.26.762-.762 9.209 9.258V1.971h1.075Zm0 41.633V34.35h-1.075v7.952l-9.21-9.259-.76.763 9.213 9.26h-7.911v1.08h9.743v-.54Zm0 23.124v9.795h-9.743v-1.08h7.911l-9.214-9.26.762-.762 9.209 9.258v-7.951h1.075Zm0 41.634v-9.255h-1.075v7.951l-9.21-9.258-.76.762 9.213 9.26h-7.911v1.079h9.743v-.539Zm0 23.123v9.795h-9.743v-1.079h7.911l-9.214-9.26.762-.763 9.209 9.259v-7.952h1.075Zm0 41.634v-9.255h-1.075v7.951l-9.21-9.258-.76.763 9.213 9.26h-7.911v1.079h9.743v-.54Zm0 23.125v9.794h-9.743v-1.079h7.911l-9.214-9.261.762-.762 9.209 9.258v-7.95h1.075Zm0 41.633v-9.255h-1.075v7.951l-9.21-9.259-.76.763 9.213 9.26h-7.911v1.08h9.743v-.54Zm0 23.124v9.794h-9.743v-1.079h7.911l-9.214-9.26.762-.763 9.209 9.259v-7.951h1.075Zm0 41.634v-9.255h-1.075v7.95l-9.21-9.258-.76.763 9.213 9.26h-7.911v1.079h9.743v-.539ZM74.31 1.971v9.795h-9.745v-1.08h7.91l-9.21-9.26.759-.762 9.211 9.258V1.971h1.075Zm0 41.633V34.35h-1.075v7.952l-9.211-9.259-.76.763 9.212 9.26h-7.911v1.08h9.745v-.54Zm0 23.124v9.795h-9.745v-1.08h7.91l-9.21-9.26.759-.762 9.211 9.258v-7.951h1.075Zm0 41.634v-9.255h-1.075v7.951L64.024 97.8l-.76.762 9.212 9.26h-7.911v1.079h9.745v-.539Zm0 23.123v9.795h-9.745v-1.079h7.91l-9.21-9.26.759-.763 9.211 9.259v-7.952h1.075Zm0 41.634v-9.255h-1.075v7.951l-9.211-9.258-.76.763 9.212 9.26h-7.911v1.079h9.745v-.54Zm0 23.125v9.794h-9.745v-1.079h7.91l-9.21-9.261.759-.762 9.211 9.258v-7.95h1.075Zm0 41.633v-9.255h-1.075v7.951l-9.211-9.259-.76.763 9.212 9.26h-7.911v1.08h9.745v-.54Zm0 23.124v9.794h-9.745v-1.079h7.91l-9.21-9.26.759-.763 9.211 9.259v-7.951h1.075Zm0 41.634v-9.255h-1.075v7.95l-9.211-9.258-.76.763 9.212 9.26h-7.911v1.079h9.745v-.539ZM43.369 1.971l-.002 9.255v.54h-9.743v-1.08h7.91l-9.213-9.26.762-.762 9.21 9.258V1.971h1.076Zm-.002 41.633.002-9.255h-1.075l-.002 7.952-9.21-9.259-.76.763 9.212 9.26h-7.91v1.08h9.743v-.54Zm.002 23.124-.002 9.255v.54h-9.743v-1.08h7.91l-9.213-9.26.762-.762 9.21 9.258v-7.951h1.076Zm-.002 41.634.002-9.255h-1.075l-.002 7.951-9.21-9.258-.76.762 9.212 9.26h-7.91v1.079h9.743v-.539Zm.002 23.123-.002 9.256v.539h-9.743v-1.079h7.91l-9.213-9.26.762-.763 9.21 9.259v-7.952h1.076Zm-.002 41.634.002-9.255h-1.075l-.002 7.951-9.21-9.258-.76.763 9.212 9.26h-7.91v1.079h9.743v-.54Zm.002 23.125-.002 9.254v.54h-9.743v-1.079h7.91l-9.213-9.261.762-.762 9.21 9.258v-7.95h1.076Zm-.002 41.633.002-9.255h-1.075l-.002 7.951-9.21-9.259-.76.763 9.212 9.26h-7.91v1.08h9.743v-.54Zm.002 23.124-.002 9.255v.539h-9.743v-1.079h7.91l-9.213-9.26.762-.763 9.21 9.259v-7.951h1.076Zm-.002 41.634.002-9.255h-1.075l-.002 7.95-9.21-9.258-.76.763 9.212 9.26h-7.91v1.079h9.743v-.539ZM12.426 1.971v9.795H2.68v-1.08h7.911L1.38 1.426l.76-.762 9.21 9.258V1.971h1.076Zm0 41.633V34.35H11.35v7.952l-9.212-9.259-.76.763 9.212 9.26H2.68v1.08h9.745v-.54Zm0 23.124v9.795H2.68v-1.08h7.911l-9.211-9.26.76-.762 9.21 9.258v-7.951h1.076Zm0 41.634v-9.255H11.35v7.951L2.139 97.8l-.76.762 9.212 9.26h-7.91v1.079h9.744v-.539Zm0 23.123v9.795H2.68v-1.079h7.911l-9.211-9.26.76-.763 9.21 9.259v-7.952h1.076Zm0 41.634v-9.255H11.35v7.951l-9.212-9.258-.76.763 9.212 9.26H2.68v1.079h9.745v-.54Zm0 23.125v9.794H2.68v-1.079h7.911l-9.211-9.261.76-.762 9.21 9.258v-7.95h1.076Zm0 41.633v-9.255H11.35v7.951l-9.212-9.259-.76.763 9.212 9.26H2.68v1.08h9.745v-.54Zm0 23.124v9.794H2.68v-1.079h7.911l-9.211-9.26.76-.763 9.21 9.259v-7.951h1.076Zm0 41.634v-9.255H11.35v7.95l-9.212-9.258-.76.763 9.212 9.26H2.68v1.079h9.745v-.539Z" fill="url(#b)"/></g><g clip-path="url(#c)"><path fill-rule="evenodd" clip-rule="evenodd" d="M306.094 11.226V1.97h1.075v7.951L316.38.664l.76.762-9.212 9.26h7.911v1.08h-9.745v-.54Zm0 32.378V34.35h1.075v7.952l9.211-9.259.76.763-9.212 9.26h7.911v1.08h-9.745v-.54Zm0 23.124v9.795h9.745v-1.08h-7.911l9.212-9.26-.76-.762-9.211 9.258v-7.951h-1.075Zm0 41.634v-9.255h1.075v7.951l9.211-9.258.76.762-9.212 9.26h7.911v1.079h-9.745v-.539Zm0 23.123v9.795h9.745v-1.079h-7.911l9.212-9.26-.76-.763-9.211 9.259v-7.952h-1.075Zm0 41.634v-9.255h1.075v7.951l9.211-9.258.76.763-9.212 9.26h7.911v1.079h-9.745v-.54Zm0 23.125v9.794h9.745v-1.079h-7.911l9.212-9.261-.76-.762-9.211 9.258v-7.95h-1.075Zm0 41.633v-9.255h1.075v7.951l9.211-9.258.76.762-9.212 9.26h7.911v1.08h-9.745v-.54Zm0 23.124v9.794h9.745v-1.079h-7.911l9.212-9.26-.76-.763-9.211 9.259v-7.951h-1.075Zm0 41.634v-9.255h1.075v7.95l9.211-9.258.76.763-9.212 9.26h7.911v1.079h-9.745v-.539ZM337.036 1.971v9.795h9.745v-1.08h-7.911l9.212-9.26-.76-.762-9.211 9.258V1.971h-1.075Zm0 41.633V34.35h1.075v7.952l9.211-9.259.76.763-9.212 9.26h7.911v1.08h-9.745v-.54Zm0 23.124v9.795h9.745v-1.08h-7.911l9.212-9.26-.76-.762-9.211 9.258v-7.951h-1.075Zm0 41.634v-9.255h1.075v7.951l9.211-9.258.76.762-9.212 9.26h7.911v1.079h-9.745v-.539Zm0 23.123v9.795h9.745v-1.079h-7.911l9.212-9.26-.76-.763-9.211 9.259v-7.952h-1.075Zm0 41.634v-9.255h1.075v7.951l9.211-9.258.76.763-9.212 9.26h7.911v1.079h-9.745v-.54Zm0 23.125v9.794h9.745v-1.079h-7.911l9.212-9.261-.76-.762-9.211 9.258v-7.95h-1.075Zm0 41.633v-9.255h1.075v7.951l9.211-9.258.76.762-9.212 9.26h7.911v1.08h-9.745v-.54Zm0 23.124v9.794h9.745v-1.079h-7.911l9.212-9.26-.76-.763-9.211 9.259v-7.951h-1.075Zm0 41.634v-9.255h1.075v7.95l9.211-9.258.76.763-9.212 9.26h7.911v1.079h-9.745v-.539ZM367.978 1.971v9.795h9.745v-1.08h-7.911l9.212-9.26-.76-.762-9.211 9.258V1.971h-1.075Zm0 41.633V34.35h1.075v7.952l9.211-9.259.76.763-9.212 9.26h7.911v1.08h-9.745v-.54Zm0 23.124v9.795h9.745v-1.08h-7.911l9.212-9.26-.76-.762-9.211 9.258v-7.951h-1.075Zm0 41.634v-9.255h1.075v7.951l9.211-9.258.76.762-9.212 9.26h7.911v1.079h-9.745v-.539Zm0 23.123v9.795h9.745v-1.079h-7.911l9.212-9.26-.76-.763-9.211 9.259v-7.952h-1.075Zm0 41.634v-9.255h1.075v7.951l9.211-9.258.76.763-9.212 9.26h7.911v1.079h-9.745v-.54Zm0 23.125v9.794h9.745v-1.079h-7.911l9.212-9.261-.76-.762-9.211 9.258v-7.95h-1.075Zm0 41.633v-9.255h1.075v7.951l9.211-9.258.76.762-9.212 9.26h7.911v1.08h-9.745v-.54Zm0 23.124v9.794h9.745v-1.079h-7.911l9.212-9.26-.76-.763-9.211 9.259v-7.951h-1.075Zm0 41.634v-9.255h1.075v7.95l9.211-9.258.76.763-9.212 9.26h7.911v1.079h-9.745v-.539ZM398.92 1.971v9.795h9.745v-1.08h-7.911l9.212-9.26-.76-.762-9.211 9.258V1.971h-1.075Zm0 41.633V34.35h1.075v7.952l9.211-9.259.76.763-9.212 9.26h7.911v1.08h-9.745v-.54Zm0 23.124v9.795h9.745v-1.08h-7.911l9.212-9.26-.76-.762-9.211 9.258v-7.951h-1.075Zm0 41.634v-9.255h1.075v7.951l9.211-9.258.76.762-9.212 9.26h7.911v1.079h-9.745v-.539Zm0 23.123v9.795h9.745v-1.079h-7.911l9.212-9.26-.76-.763-9.211 9.259v-7.952h-1.075Zm0 41.634v-9.255h1.075v7.951l9.211-9.258.76.763-9.212 9.26h7.911v1.079h-9.745v-.54Zm0 23.125v9.794h9.745v-1.079h-7.911l9.212-9.26-.76-.763-9.211 9.258v-7.95h-1.075Zm0 41.633v-9.255h1.075v7.951l9.211-9.258.76.762-9.212 9.26h7.911v1.08h-9.745v-.54Zm0 23.124v9.794h9.745v-1.079h-7.911l9.212-9.26-.76-.763-9.211 9.259v-7.951h-1.075Zm0 41.634v-9.255h1.075v7.95l9.211-9.258.76.763-9.212 9.26h7.911v1.079h-9.745v-.539ZM429.862 1.971v9.795h9.745v-1.08h-7.911l9.213-9.26-.761-.762-9.211 9.258V1.971h-1.075Zm0 41.633V34.35h1.075v7.952l9.211-9.259.761.763-9.213 9.26h7.911v1.08h-9.745v-.54Zm0 23.124v9.795h9.745v-1.08h-7.911l9.213-9.26-.761-.762-9.211 9.258v-7.95h-1.075Zm0 41.634v-9.255h1.075v7.951l9.211-9.258.761.762-9.213 9.26h7.911v1.079h-9.745v-.539Zm0 23.123v9.795h9.745v-1.079h-7.911l9.213-9.26-.761-.763-9.211 9.259v-7.952h-1.075Zm0 41.634v-9.255h1.075v7.951l9.211-9.258.76.763-9.212 9.26h7.911v1.079h-9.745v-.54Zm0 23.125v9.794h9.745v-1.079h-7.911l9.212-9.26-.76-.763-9.211 9.258v-7.95h-1.075Zm0 41.633v-9.255h1.075v7.951l9.211-9.258.76.762-9.212 9.26h7.911v1.08h-9.745v-.54Zm0 23.124v9.794h9.745v-1.079h-7.911l9.212-9.26-.76-.763-9.211 9.259v-7.951h-1.075Zm0 41.634v-9.255h1.075v7.95l9.211-9.258.76.763-9.212 9.26h7.911v1.079h-9.745v-.539ZM460.804 1.971v9.795h9.745v-1.08h-7.911l9.212-9.26-.76-.762-9.211 9.258V1.971h-1.075Zm0 41.633V34.35h1.075v7.952l9.211-9.259.76.763-9.212 9.26h7.911v1.08h-9.745v-.54Zm0 23.124v9.795h9.745v-1.08h-7.911l9.212-9.26-.76-.762-9.211 9.258v-7.95h-1.075Zm0 41.634v-9.255h1.075v7.951l9.211-9.258.76.762-9.212 9.26h7.911v1.079h-9.745v-.539Zm0 23.123v9.795h9.745v-1.079h-7.911l9.212-9.26-.76-.763-9.211 9.259v-7.952h-1.075Zm0 41.634v-9.255h1.075v7.951l9.211-9.258.76.763-9.212 9.26h7.911v1.079h-9.745v-.54Zm0 23.125v9.794h9.745v-1.079h-7.911l9.212-9.26-.76-.763-9.211 9.258v-7.95h-1.075Zm0 41.633v-9.255h1.075v7.951l9.211-9.258.76.762-9.212 9.26h7.911v1.08h-9.745v-.54Zm0 23.124v9.794h9.745v-1.079h-7.911l9.212-9.26-.76-.763-9.211 9.259v-7.951h-1.075Zm0 41.634v-9.255h1.075v7.95l9.211-9.258.76.763-9.212 9.26h7.911v1.079h-9.745v-.539ZM491.749 1.971v9.795h9.743v-1.08h-7.911l9.214-9.26-.762-.762-9.209 9.258V1.971h-1.075Zm0 41.633V34.35h1.075v7.952l9.209-9.259.762.763-9.214 9.26h7.911v1.08h-9.743v-.54Zm0 23.124v9.795h9.743v-1.08h-7.911l9.214-9.26-.762-.762-9.209 9.258v-7.95h-1.075Zm0 41.634v-9.255h1.075v7.951l9.209-9.258.762.762-9.214 9.26h7.911v1.079h-9.743v-.539Zm0 23.123v9.795h9.743v-1.079h-7.911l9.214-9.26-.762-.763-9.209 9.259v-7.952h-1.075Zm0 41.634v-9.255h1.075v7.951l9.209-9.258.762.763-9.214 9.26h7.911v1.079h-9.743v-.54Zm0 23.125v9.794h9.743v-1.079h-7.911l9.214-9.26-.762-.763-9.209 9.258v-7.95h-1.075Zm0 41.633v-9.255h1.075v7.951l9.209-9.258.762.762-9.214 9.26h7.911v1.08h-9.743v-.54Zm0 23.124v9.794h9.743v-1.079h-7.911l9.214-9.26-.762-.763-9.209 9.259v-7.951h-1.075Zm0 41.634v-9.255h1.075v7.95l9.209-9.258.762.763-9.214 9.26h7.911v1.079h-9.743v-.539ZM522.69 1.971v9.795h9.745v-1.08h-7.911l9.212-9.26-.76-.762-9.211 9.258V1.971h-1.075Zm0 41.633V34.35h1.075v7.952l9.211-9.259.76.763-9.212 9.26h7.911v1.08h-9.745v-.54Zm0 23.124v9.795h9.745v-1.08h-7.911l9.212-9.26-.76-.762-9.211 9.258v-7.95h-1.075Zm0 41.634v-9.255h1.075v7.951l9.211-9.258.76.762-9.212 9.26h7.911v1.079h-9.745v-.539Zm0 23.123v9.795h9.745v-1.079h-7.911l9.212-9.26-.76-.763-9.211 9.259v-7.952h-1.075Zm0 41.634v-9.255h1.075v7.951l9.211-9.258.76.763-9.212 9.26h7.911v1.079h-9.745v-.54Zm0 23.125v9.794h9.745v-1.079h-7.911l9.212-9.26-.76-.763-9.211 9.258v-7.95h-1.075Zm0 41.633v-9.255h1.075v7.951l9.211-9.258.76.762-9.212 9.26h7.911v1.08h-9.745v-.54Zm0 23.124v9.794h9.745v-1.079h-7.911l9.212-9.26-.76-.763-9.211 9.259v-7.951h-1.075Zm0 41.634v-9.255h1.075v7.95l9.211-9.258.76.763-9.212 9.26h7.911v1.079h-9.745v-.539ZM553.631 1.971l.002 9.255v.54h9.744v-1.08h-7.911l9.213-9.26-.761-.762-9.21 9.258-.002-7.951h-1.075Zm.002 41.633-.002-9.255h1.075l.002 7.952 9.21-9.259.761.763-9.213 9.26h7.911v1.08h-9.744v-.54Zm-.002 23.124.002 9.255v.54h9.744v-1.08h-7.911l9.213-9.26-.761-.762-9.21 9.258-.002-7.95h-1.075Zm.002 41.634-.002-9.255h1.075l.002 7.951 9.21-9.258.761.762-9.213 9.26h7.911v1.079h-9.744v-.539Zm-.002 23.123.002 9.256v.539h9.743v-1.079h-7.91l9.213-9.26-.761-.763-9.21 9.259-.002-7.952h-1.075Zm.002 41.634-.002-9.255h1.075l.002 7.951 9.21-9.258.761.763-9.213 9.26h7.91v1.079h-9.743v-.54Zm-.002 23.125.002 9.254v.54h9.743v-1.079h-7.91l9.213-9.26-.761-.763-9.21 9.258-.002-7.95h-1.075Zm.002 41.633-.002-9.255h1.075l.002 7.951 9.21-9.258.761.762-9.213 9.26h7.91v1.08h-9.743v-.54Zm-.002 23.124.002 9.255v.539h9.743v-1.079h-7.91l9.213-9.26-.761-.763-9.21 9.259-.002-7.951h-1.075Zm.002 41.634-.002-9.255h1.075l.002 7.95 9.21-9.258.761.763-9.213 9.26h7.91v1.079h-9.743v-.539ZM584.574 1.971v9.795h9.746v-1.08h-7.911l9.211-9.26-.759-.762-9.212 9.258V1.971h-1.075Zm0 41.633V34.35h1.075v7.952l9.212-9.259.759.763-9.211 9.26h7.911v1.08h-9.746v-.54Zm0 23.124v9.795h9.746v-1.08h-7.911l9.211-9.26-.759-.762-9.212 9.258v-7.95h-1.075Zm0 41.634v-9.255h1.075v7.951l9.212-9.258.759.762-9.211 9.26h7.911v1.079h-9.746v-.539Zm0 23.123v9.795h9.746v-1.079h-7.911l9.211-9.26-.759-.763-9.212 9.259v-7.952h-1.075Zm0 41.634v-9.255h1.075v7.951l9.212-9.258.759.763-9.211 9.26h7.911v1.079h-9.746v-.54Zm0 23.125v9.794h9.746v-1.079h-7.911l9.211-9.26-.759-.763-9.212 9.258v-7.95h-1.075Zm0 41.633v-9.255h1.075v7.951l9.212-9.258.759.762-9.211 9.26h7.911v1.08h-9.746v-.54Zm0 23.124v9.794h9.746v-1.079h-7.911l9.211-9.26-.759-.763-9.212 9.259v-7.951h-1.075Zm0 41.634v-9.255h1.075v7.95l9.212-9.258.759.763-9.211 9.26h7.911v1.079h-9.746v-.539Z" fill="url(#d)"/></g><defs><linearGradient id="b" x1="1.277" y1="303.284" x2="197.046" y2="-.436" gradientUnits="userSpaceOnUse"><stop stop-color="#3AB14A"/><stop offset="1" stop-color="#fff"/></linearGradient><linearGradient id="d" x1="595.723" y1="303.284" x2="399.954" y2="-.436" gradientUnits="userSpaceOnUse"><stop stop-color="#3AB14A"/><stop offset="1" stop-color="#fff"/></linearGradient><clipPath id="a"><path fill="#fff" transform="rotate(90 146 146)" d="M0 0h304v292H0z"/></clipPath><clipPath id="c"><path fill="#fff" transform="matrix(0 1 1 0 305 0)" d="M0 0h304v292H0z"/></clipPath></defs></svg>