<svg width="663" height="690" viewBox="0 0 663 690" fill="none" xmlns="http://www.w3.org/2000/svg"><g clip-path="url(#a)"><path fill-rule="evenodd" clip-rule="evenodd" d="m660.518 25.48.001-21.008h-2.441V22.52L637.164 1.506l-1.727 1.731 20.917 21.017h-17.962v2.45h22.126v-1.225Zm0 73.49.001-21.006h-2.441V96.01l-20.914-21.014-1.727 1.731 20.917 21.018h-17.962v2.449h22.126V98.97Zm.001 52.485-.001 21.006v1.225h-22.126v-2.449h17.962l-20.917-21.018 1.727-1.731 20.914 21.014v-18.047h2.441Zm-.001 94.498.001-21.007h-2.441v18.047l-20.914-21.014-1.727 1.731 20.917 21.018h-17.962v2.449h22.126v-1.224Zm.001 52.484-.001 21.007v1.225h-22.126v-2.45h17.962l-20.917-21.017 1.727-1.732 20.914 21.014v-18.047h2.441Zm-.001 94.498.001-21.007h-2.441v18.048l-20.914-21.014-1.727 1.731 20.917 21.017h-17.962v2.45h22.126v-1.225Zm.001 52.486-.001 21.006v1.225h-22.126v-2.45h17.962l-20.917-21.018 1.727-1.731 20.914 21.014v-18.046h2.441Zm-.001 94.497.001-21.006h-2.441v18.046l-20.914-21.014-1.727 1.731 20.917 21.018h-17.962v2.45h22.126v-1.225Zm.001 52.485-.001 21.006v1.225h-22.126v-2.45h17.962l-20.917-21.018 1.727-1.731 20.914 21.014v-18.046h2.441Zm-.001 94.497.001-21.006h-2.441v18.046l-20.914-21.014-1.727 1.731 20.917 21.019h-17.962v2.449h22.126V686.9ZM590.263 4.472v22.232h-22.126v-2.45h17.962L565.182 3.237l1.726-1.731 20.914 21.014V4.472h2.441Zm0 94.498V77.964h-2.441V96.01l-20.914-21.014-1.726 1.731 20.917 21.018h-17.962v2.449h22.126V98.97Zm0 52.485v22.231h-22.126v-2.449h17.962l-20.917-21.018 1.726-1.731 20.914 21.014v-18.047h2.441Zm0 94.498v-21.007h-2.441v18.047l-20.914-21.014-1.726 1.731 20.917 21.018h-17.962v2.449h22.126v-1.224Zm0 52.484v22.232h-22.126v-2.45h17.962l-20.917-21.017 1.726-1.732 20.914 21.014v-18.047h2.441Zm0 94.498v-21.007h-2.441v18.048l-20.914-21.014-1.726 1.731 20.917 21.017h-17.962v2.45h22.126v-1.225Zm0 52.486v22.231h-22.126v-2.45h17.962l-20.917-21.018 1.726-1.731 20.914 21.014v-18.046h2.441Zm0 94.497v-21.006h-2.441v18.046l-20.914-21.014-1.726 1.731 20.917 21.018h-17.962v2.45h22.126v-1.225Zm0 52.485v22.231h-22.126v-2.45h17.962l-20.917-21.018 1.726-1.731 20.914 21.014v-18.046h2.441Zm0 94.497v-21.006h-2.441v18.046l-20.914-21.014-1.726 1.731 20.917 21.019h-17.962v2.449h22.126V686.9ZM520.008 4.472l-.001 21.007v1.225h-22.126v-2.45h17.962L494.926 3.237l1.727-1.731 20.914 21.014V4.472h2.441Zm-.001 94.498.001-21.006h-2.441V96.01l-20.914-21.014-1.727 1.731 20.917 21.018h-17.962v2.449h22.126V98.97Zm.001 52.485-.001 21.006v1.225h-22.126v-2.449h17.962l-20.917-21.018 1.727-1.731 20.914 21.014v-18.047h2.441Zm-.001 94.498.001-21.007h-2.441v18.047l-20.914-21.014-1.727 1.731 20.917 21.018h-17.962v2.449h22.126v-1.224Zm.001 52.484-.001 21.007v1.225h-22.126v-2.45h17.962l-20.917-21.017 1.727-1.732 20.914 21.014v-18.047h2.441Zm-.001 94.498.001-21.007h-2.441v18.048l-20.914-21.014-1.727 1.731 20.917 21.017h-17.962v2.45h22.126v-1.225Zm.001 52.486-.001 21.006v1.225h-22.126v-2.45h17.962l-20.917-21.018 1.727-1.731 20.914 21.014v-18.046h2.441Zm-.001 94.497.001-21.006h-2.441v18.046l-20.914-21.014-1.727 1.731 20.917 21.018h-17.962v2.45h22.126v-1.225Zm.001 52.485-.001 21.006v1.225h-22.126v-2.45h17.962l-20.917-21.018 1.727-1.731 20.914 21.014v-18.046h2.441Zm-.001 94.497.001-21.006h-2.441v18.046l-20.914-21.014-1.727 1.731 20.917 21.019h-17.962v2.449h22.126V686.9ZM449.752 4.472v22.232h-22.126v-2.45h17.962L424.671 3.237l1.726-1.731 20.914 21.014.001-18.048h2.44Zm0 94.498V77.964h-2.44l-.001 18.047-20.914-21.014-1.726 1.731 20.917 21.018h-17.962v2.449h22.126V98.97Zm0 52.485v22.231h-22.126v-2.449h17.962l-20.917-21.018 1.726-1.731 20.914 21.014.001-18.047h2.44Zm0 94.498v-21.007h-2.44l-.001 18.047-20.914-21.014-1.726 1.731 20.917 21.018h-17.962v2.449h22.126v-1.224Zm0 52.484v22.232h-22.126v-2.45h17.962l-20.917-21.017 1.726-1.732 20.914 21.014.001-18.047h2.44Zm0 94.498v-21.007h-2.44l-.001 18.048-20.914-21.014-1.726 1.731 20.917 21.017h-17.962v2.45h22.126v-1.225Zm0 52.486v22.231h-22.126v-2.45h17.962l-20.917-21.018 1.726-1.731 20.914 21.014.001-18.046h2.44Zm0 94.497v-21.006h-2.44l-.001 18.046-20.914-21.014-1.726 1.731 20.917 21.018h-17.962v2.45h22.126v-1.225Zm0 52.485v22.231h-22.126v-2.45h17.962l-20.917-21.018 1.726-1.731 20.914 21.014.001-18.046h2.44Zm0 94.497v-21.006h-2.44l-.001 18.046-20.914-21.014-1.726 1.731 20.917 21.019h-17.962v2.449h22.126V686.9ZM379.497 4.472v22.232H357.37v-2.45h17.962L354.415 3.237l1.727-1.731 20.914 21.014V4.472h2.441Zm0 94.498V77.964h-2.441V96.01l-20.914-21.014-1.727 1.731 20.917 21.018H357.37v2.449h22.127V98.97Zm0 52.485v22.231H357.37v-2.449h17.962l-20.917-21.018 1.727-1.731 20.914 21.014v-18.047h2.441Zm-.001 94.498v-21.007h-2.44v18.047l-20.914-21.014-1.727 1.731 20.917 21.018H357.37v2.449h22.126v-1.224Zm0 52.484v22.232H357.37v-2.45h17.962l-20.917-21.017 1.727-1.732 20.914 21.014v-18.047h2.44Zm0 94.498v-21.007h-2.44v18.048l-20.914-21.014-1.727 1.731 20.917 21.017H357.37v2.45h22.126v-1.225Zm0 52.486v22.231H357.37v-2.45h17.962l-20.917-21.018 1.727-1.731 20.914 21.014v-18.046h2.44Zm0 94.497v-21.006h-2.44v18.046l-20.914-21.014-1.727 1.731 20.917 21.018H357.37v2.45h22.126v-1.225Zm0 52.485v22.231H357.37v-2.45h17.962l-20.917-21.018 1.727-1.731 20.914 21.014v-18.046h2.44Zm0 94.497v-21.006h-2.44v18.046l-20.914-21.014-1.727 1.731 20.917 21.019H357.37v2.449h22.126V686.9ZM309.241 4.472v22.232h-22.126v-2.45h17.962L284.16 3.237l1.726-1.731L306.8 22.52l.001-18.048h2.44Zm0 94.498V77.964h-2.44L306.8 96.01l-20.914-21.014-1.726 1.731 20.917 21.018h-17.962v2.449h22.126V98.97Zm0 52.485v22.231h-22.126v-2.449h17.962l-20.917-21.018 1.726-1.731 20.914 21.014.001-18.047h2.44Zm0 94.498v-21.007h-2.44l-.001 18.047-20.914-21.014-1.726 1.731 20.917 21.018h-17.962v2.449h22.126v-1.224Zm0 52.484v22.232h-22.126v-2.45h17.962l-20.917-21.017 1.726-1.732 20.914 21.014.001-18.047h2.44Zm0 94.498v-21.007h-2.44l-.001 18.048-20.914-21.014-1.726 1.731 20.917 21.017h-17.962v2.45h22.126v-1.225Zm0 52.486v22.231h-22.126v-2.45h17.962l-20.917-21.018 1.726-1.731 20.914 21.014.001-18.046h2.44Zm0 94.497v-21.006h-2.44l-.001 18.046-20.914-21.014-1.726 1.731 20.917 21.018h-17.962v2.45h22.126v-1.225Zm0 52.485v22.231h-22.126v-2.45h17.962l-20.917-21.018 1.726-1.731 20.914 21.014.001-18.046h2.44Zm0 94.497v-21.006h-2.44l-.001 18.046-20.914-21.014-1.726 1.731 20.917 21.019h-17.962v2.449h22.126V686.9ZM238.98 4.472v22.232h-22.123v-2.45h17.962L213.9 3.237l1.729-1.731 20.91 21.014V4.472h2.441Zm0 94.498V77.964h-2.441V96.01l-20.91-21.014-1.729 1.731 20.919 21.018h-17.962v2.449h22.123V98.97Zm0 52.485v22.231h-22.123v-2.449h17.962L213.9 150.219l1.729-1.731 20.91 21.014v-18.047h2.441Zm0 94.498v-21.007h-2.441v18.047l-20.91-21.014-1.729 1.731 20.919 21.018h-17.962v2.449h22.123v-1.224Zm0 52.484v22.232h-22.123v-2.45h17.962L213.9 297.202l1.729-1.732 20.91 21.014v-18.047h2.441Zm0 94.498v-21.007h-2.441v18.048l-20.91-21.014-1.729 1.731 20.919 21.017h-17.962v2.45h22.123v-1.225Zm0 52.486v22.231h-22.123v-2.45h17.962L213.9 444.184l1.729-1.731 20.91 21.014v-18.046h2.441Zm0 94.497v-21.006h-2.441v18.046l-20.91-21.014-1.729 1.731 20.919 21.018h-17.962v2.45h22.123v-1.225Zm0 52.485v22.231h-22.123v-2.45h17.962L213.9 591.166l1.729-1.731 20.91 21.014v-18.046h2.441Zm0 94.497v-21.006h-2.441v18.046l-20.91-21.014-1.729 1.731 20.919 21.019h-17.962v2.449h22.123V686.9ZM168.726 4.472v22.232h-22.127v-2.45h17.962L143.646 3.237l1.725-1.731 20.915 21.014V4.472h2.44Zm0 94.498V77.964h-2.44V96.01l-20.915-21.014-1.725 1.731 20.915 21.018h-17.962v2.449h22.127V98.97Zm0 52.485v22.231h-22.127v-2.449h17.962l-20.915-21.018 1.725-1.731 20.915 21.014v-18.047h2.44Zm0 94.498v-21.007h-2.44v18.047l-20.915-21.014-1.725 1.731 20.915 21.018h-17.962v2.449h22.127v-1.224Zm0 52.484v22.232h-22.127v-2.45h17.962l-20.915-21.017 1.725-1.732 20.915 21.014v-18.047h2.44Zm0 94.498v-21.007h-2.44v18.048l-20.915-21.014-1.725 1.731 20.915 21.017h-17.962v2.45h22.127v-1.225Zm0 52.486v22.231h-22.127v-2.45h17.962l-20.915-21.018 1.725-1.731 20.915 21.014v-18.046h2.44Zm0 94.497v-21.006h-2.44v18.046l-20.915-21.014-1.725 1.731 20.915 21.018h-17.962v2.45h22.127v-1.225Zm0 52.485v22.231h-22.127v-2.45h17.962l-20.915-21.018 1.725-1.731 20.915 21.014v-18.046h2.44Zm0 94.497v-21.006h-2.44v18.046l-20.915-21.014-1.725 1.731 20.915 21.019h-17.962v2.449h22.127V686.9ZM98.473 4.472l-.004 21.007v1.225H76.346v-2.45h17.962L73.388 3.237l1.73-1.731 20.91 21.014.004-18.048h2.44Zm-.004 94.498.004-21.006h-2.44l-.005 18.047-20.91-21.014-1.73 1.731 20.92 21.018H76.346v2.449h22.123V98.97Zm.004 52.485-.004 21.006v1.225H76.346v-2.449h17.962l-20.92-21.018 1.73-1.731 20.91 21.014.004-18.047h2.44Zm-.004 94.498.004-21.007h-2.44l-.005 18.047-20.91-21.014-1.73 1.731 20.92 21.018H76.346v2.449h22.123v-1.224Zm.004 52.484-.004 21.007v1.225H76.346v-2.45h17.962l-20.92-21.017 1.73-1.732 20.91 21.014.004-18.047h2.44Zm-.004 94.498.004-21.007h-2.44l-.005 18.048-20.91-21.014-1.73 1.731 20.92 21.017H76.346v2.45h22.123v-1.225Zm.004 52.486-.004 21.006v1.225H76.346v-2.45h17.962l-20.92-21.018 1.73-1.731 20.91 21.014.004-18.046h2.44Zm-.004 94.497.004-21.006h-2.44l-.005 18.046-20.91-21.014-1.73 1.731 20.92 21.018H76.346v2.45h22.123v-1.225Zm.004 52.485-.004 21.006v1.225H76.346v-2.45h17.962l-20.92-21.018 1.73-1.731 20.91 21.014.004-18.046h2.44Zm-.004 94.497.004-21.006h-2.44l-.005 18.046-20.91-21.014-1.73 1.731 20.92 21.019H76.346v2.449h22.123V686.9ZM28.215 4.472v22.232H6.088v-2.45H24.05L3.135 3.237 4.86 1.506 25.775 22.52V4.472h2.44Zm0 94.498V77.964h-2.44V96.01L4.86 74.997l-1.725 1.731L24.05 97.745H6.088v2.45h22.127V98.97Zm0 52.485v22.231H6.088v-2.449H24.05L3.135 150.219l1.725-1.731 20.915 21.014v-18.047h2.44Zm0 94.498v-21.007h-2.44v18.047L4.86 221.979l-1.725 1.731 20.915 21.018H6.088v2.449h22.127v-1.224Zm0 52.484v22.232H6.088v-2.45H24.05L3.135 297.202l1.725-1.732 20.915 21.014v-18.047h2.44Zm0 94.498v-21.007h-2.44v18.048L4.86 368.962l-1.725 1.731L24.05 391.71H6.088v2.45h22.127v-1.225Zm0 52.486v22.231H6.088v-2.45H24.05L3.135 444.184l1.725-1.731 20.915 21.014v-18.046h2.44Zm0 94.497v-21.006h-2.44v18.046L4.86 515.944l-1.725 1.731 20.915 21.018H6.088v2.45h22.127v-1.225Zm0 52.485v22.231H6.088v-2.45H24.05L3.135 591.166l1.725-1.731 20.915 21.014v-18.046h2.44Zm0 94.497v-21.006h-2.44v18.046L4.86 662.926l-1.725 1.731 20.915 21.019H6.088v2.449h22.127V686.9Z" fill="url(#b)"/></g><defs><linearGradient id="b" x1="2.902" y1="688.375" x2="447.179" y2="-1.134" gradientUnits="userSpaceOnUse"><stop stop-color="#3AB14A"/><stop offset="1" stop-color="#fff"/></linearGradient><clipPath id="a"><path fill="#fff" transform="rotate(90 331.5 331.5)" d="M0 0h690v663H0z"/></clipPath></defs></svg>