<svg width="663" height="690" viewBox="0 0 663 690" fill="none" xmlns="http://www.w3.org/2000/svg"><g opacity=".5" clip-path="url(#a)"><path fill-rule="evenodd" clip-rule="evenodd" d="m660.517 25.48.001-21.008h-2.441V22.52L637.163 1.506l-1.727 1.731 20.917 21.017h-17.962v2.45h22.126v-1.225Zm0 73.49.001-21.006h-2.441V96.01l-20.914-21.014-1.727 1.731 20.917 21.018h-17.962v2.449h22.126V98.97Zm.001 52.485-.001 21.006v1.225h-22.126v-2.449h17.962l-20.917-21.018 1.727-1.731 20.914 21.014v-18.047h2.441Zm-.001 94.498.001-21.007h-2.441v18.047l-20.914-21.014-1.727 1.731 20.917 21.018h-17.962v2.449h22.126v-1.224Zm.001 52.484-.001 21.007v1.225h-22.126v-2.45h17.962l-20.917-21.017 1.727-1.732 20.914 21.014v-18.047h2.441Zm-.001 94.498.001-21.007h-2.441v18.048l-20.914-21.014-1.727 1.731 20.917 21.017h-17.962v2.45h22.126v-1.225Zm.001 52.486-.001 21.006v1.225h-22.126v-2.45h17.962l-20.917-21.018 1.727-1.731 20.914 21.014v-18.046h2.441Zm-.001 94.497.001-21.006h-2.441v18.046l-20.914-21.014-1.727 1.731 20.917 21.018h-17.962v2.45h22.126v-1.225Zm.001 52.485-.001 21.006v1.225h-22.126v-2.449h17.962l-20.917-21.019 1.727-1.731 20.914 21.014v-18.046h2.441Zm-.001 94.497.001-21.006h-2.441v18.046l-20.914-21.014-1.727 1.731 20.917 21.019h-17.962v2.449h22.126V686.9ZM590.262 4.472v22.232h-22.126v-2.45h17.962L565.181 3.237l1.726-1.731 20.915 21.014V4.472h2.44Zm0 94.498V77.964h-2.44V96.01l-20.915-21.014-1.726 1.731 20.917 21.018h-17.962v2.449h22.126V98.97Zm0 52.485v22.231h-22.126v-2.449h17.962l-20.917-21.018 1.726-1.731 20.915 21.014v-18.047h2.44Zm0 94.498v-21.007h-2.44l-.001 18.047-20.914-21.014-1.726 1.731 20.917 21.018h-17.962v2.449h22.126v-1.224Zm0 52.484v22.232h-22.126v-2.45h17.962l-20.917-21.017 1.726-1.732 20.914 21.014v-18.047h2.441Zm0 94.498v-21.007h-2.441v18.048l-20.914-21.014-1.726 1.731 20.917 21.017h-17.962v2.45h22.126v-1.225Zm0 52.486v22.231h-22.126v-2.45h17.962l-20.917-21.018 1.726-1.731 20.914 21.014v-18.046h2.441Zm0 94.497v-21.006h-2.441v18.046l-20.914-21.014-1.726 1.731 20.917 21.018h-17.962v2.45h22.126v-1.225Zm0 52.485v22.231h-22.126v-2.449h17.962l-20.917-21.019 1.726-1.731 20.914 21.014v-18.046h2.441Zm0 94.497v-21.006h-2.441v18.046l-20.914-21.014-1.726 1.731 20.917 21.019h-17.962v2.449h22.126V686.9ZM520.007 4.472l-.001 21.007v1.225H497.88v-2.45h17.962L494.925 3.237l1.727-1.731 20.914 21.014V4.472h2.441Zm-.001 94.498.001-21.006h-2.441V96.01l-20.914-21.014-1.727 1.731 20.917 21.018H497.88v2.449h22.126V98.97Zm.001 52.485-.001 21.006v1.225H497.88v-2.449h17.962l-20.917-21.018 1.727-1.731 20.914 21.014v-18.047h2.441Zm-.001 94.498.001-21.007h-2.441v18.047l-20.914-21.014-1.727 1.731 20.917 21.018H497.88v2.449h22.126v-1.224Zm.001 52.484-.001 21.007v1.225H497.88v-2.45h17.962l-20.917-21.017 1.727-1.732 20.914 21.014v-18.047h2.441Zm-.001 94.498.001-21.007h-2.441v18.048l-20.914-21.014-1.727 1.731 20.917 21.017H497.88v2.45h22.126v-1.225Zm.001 52.486-.001 21.006v1.225H497.88v-2.45h17.962l-20.917-21.018 1.727-1.731 20.914 21.014v-18.046h2.441Zm-.001 94.497.001-21.006h-2.441v18.046l-20.914-21.014-1.727 1.731 20.917 21.018H497.88v2.45h22.126v-1.225Zm.001 52.485-.001 21.006v1.225H497.88v-2.449h17.962l-20.917-21.019 1.727-1.731 20.914 21.014v-18.046h2.441Zm-.001 94.497.001-21.006h-2.441v18.046l-20.914-21.014-1.727 1.731 20.917 21.019H497.88v2.449h22.126V686.9ZM449.751 4.472v22.232h-22.126v-2.45h17.962L424.67 3.237l1.726-1.731L447.31 22.52l.001-18.048h2.44Zm0 94.498V77.964h-2.44l-.001 18.047-20.914-21.014-1.726 1.731 20.917 21.018h-17.962v2.449h22.126V98.97Zm0 52.485v22.231h-22.126v-2.449h17.962l-20.917-21.018 1.726-1.731 20.914 21.014.001-18.047h2.44Zm0 94.498v-21.007h-2.44l-.001 18.047-20.914-21.014-1.726 1.731 20.917 21.018h-17.962v2.449h22.126v-1.224Zm0 52.484v22.232h-22.126v-2.45h17.962l-20.917-21.017 1.726-1.732 20.914 21.014.001-18.047h2.44Zm0 94.498v-21.007h-2.44l-.001 18.048-20.914-21.014-1.726 1.731 20.917 21.017h-17.962v2.45h22.126v-1.225Zm0 52.486v22.231h-22.126v-2.45h17.962l-20.917-21.018 1.726-1.731 20.914 21.014.001-18.046h2.44Zm0 94.497v-21.006h-2.44l-.001 18.046-20.914-21.014-1.726 1.731 20.917 21.018h-17.962v2.45h22.126v-1.225Zm0 52.485v22.231h-22.126v-2.45h17.962l-20.917-21.018 1.726-1.731 20.914 21.014.001-18.046h2.44Zm0 94.497v-21.006h-2.44l-.001 18.046-20.914-21.014-1.726 1.731 20.917 21.019h-17.962v2.449h22.126V686.9ZM379.496 4.472v22.232h-22.127v-2.45h17.962L354.414 3.237l1.727-1.731 20.914 21.014V4.472h2.441Zm0 94.498V77.964h-2.441V96.01l-20.914-21.014-1.727 1.731 20.917 21.018h-17.962v2.449h22.127V98.97Zm0 52.485v22.231h-22.127v-2.449h17.962l-20.917-21.018 1.727-1.731 20.914 21.014v-18.047h2.441Zm0 94.498v-21.007h-2.441v18.047l-20.914-21.014-1.727 1.731 20.917 21.018h-17.962v2.449h22.127v-1.224Zm0 52.484v22.232h-22.127v-2.45h17.962l-20.917-21.017 1.727-1.732 20.914 21.014v-18.047h2.441Zm0 94.498v-21.007h-2.441v18.048l-20.914-21.014-1.727 1.731 20.917 21.017h-17.962v2.45h22.127v-1.225Zm0 52.486v22.231h-22.127v-2.45h17.962l-20.917-21.018 1.727-1.731 20.914 21.014v-18.046h2.441Zm0 94.497v-21.006h-2.441v18.046l-20.914-21.014-1.727 1.731 20.917 21.018h-17.962v2.45h22.127v-1.225Zm0 52.485v22.231h-22.127v-2.45h17.962l-20.917-21.018 1.727-1.731 20.914 21.014v-18.046h2.441Zm0 94.497v-21.006h-2.441v18.046l-20.914-21.014-1.727 1.731 20.917 21.019h-17.962v2.449h22.127V686.9ZM309.24 4.472v22.232h-22.126v-2.45h17.962L284.159 3.237l1.726-1.731 20.914 21.014.001-18.048h2.44Zm0 94.498V77.964h-2.44l-.001 18.047-20.914-21.014-1.726 1.731 20.917 21.018h-17.962v2.449h22.126V98.97Zm0 52.485v22.231h-22.126v-2.449h17.962l-20.917-21.018 1.726-1.731 20.914 21.014.001-18.047h2.44Zm0 94.498v-21.007h-2.44l-.001 18.047-20.914-21.014-1.726 1.731 20.917 21.018h-17.962v2.449h22.126v-1.224Zm0 52.484v22.232h-22.126v-2.45h17.962l-20.917-21.017 1.726-1.732 20.914 21.014.001-18.047h2.44Zm0 94.498v-21.007h-2.44l-.001 18.048-20.914-21.014-1.726 1.731 20.917 21.017h-17.962v2.45h22.126v-1.225Zm0 52.486v22.231h-22.126v-2.45h17.962l-20.917-21.018 1.726-1.731 20.914 21.014.001-18.046h2.44Zm0 94.497v-21.006h-2.44l-.001 18.046-20.914-21.014-1.726 1.731 20.917 21.018h-17.962v2.45h22.126v-1.225Zm0 52.485v22.231h-22.126v-2.45h17.962l-20.917-21.018 1.726-1.731 20.914 21.014.001-18.046h2.44Zm0 94.497v-21.006h-2.44l-.001 18.046-20.914-21.014-1.726 1.731 20.917 21.019h-17.962v2.449h22.126V686.9ZM238.979 4.472v22.232h-22.123v-2.45h17.962L213.899 3.237l1.729-1.731 20.911 21.014V4.472h2.44Zm0 94.498V77.964h-2.44V96.01l-20.911-21.014-1.729 1.731 20.919 21.018h-17.962v2.449h22.123V98.97Zm0 52.485v22.231h-22.123v-2.449h17.962l-20.919-21.018 1.729-1.731 20.911 21.014v-18.047h2.44Zm0 94.498v-21.007h-2.44v18.047l-20.911-21.014-1.729 1.731 20.919 21.018h-17.962v2.449h22.123v-1.224Zm0 52.484v22.232h-22.123v-2.45h17.962l-20.919-21.017 1.729-1.732 20.91 21.014.001-18.047h2.44Zm0 94.498v-21.007h-2.441v18.048l-20.91-21.014-1.729 1.731 20.919 21.017h-17.962v2.45h22.123v-1.225Zm0 52.486v22.231h-22.123v-2.45h17.962l-20.919-21.018 1.729-1.731 20.91 21.014v-18.046h2.441Zm0 94.497v-21.006h-2.441v18.046l-20.91-21.014-1.729 1.731 20.919 21.018h-17.962v2.45h22.123v-1.225Zm0 52.485v22.231h-22.123v-2.45h17.962l-20.919-21.018 1.729-1.731 20.91 21.014v-18.046h2.441Zm0 94.497v-21.006h-2.441v18.046l-20.91-21.014-1.729 1.731 20.919 21.019h-17.962v2.449h22.123V686.9ZM168.725 4.472v22.232h-22.127v-2.45h17.962L143.645 3.237l1.725-1.731 20.915 21.014V4.472h2.44Zm0 94.498V77.964h-2.44V96.01L145.37 74.997l-1.725 1.731 20.915 21.018h-17.962v2.449h22.127V98.97Zm0 52.485v22.231h-22.127v-2.449h17.962l-20.915-21.018 1.725-1.731 20.915 21.014v-18.047h2.44Zm0 94.498v-21.007h-2.44v18.047l-20.915-21.014-1.725 1.731 20.915 21.018h-17.962v2.449h22.127v-1.224Zm0 52.484v22.232h-22.127v-2.45h17.962l-20.915-21.017 1.725-1.732 20.915 21.014v-18.047h2.44Zm0 94.498v-21.007h-2.44v18.048l-20.915-21.014-1.725 1.731 20.915 21.017h-17.962v2.45h22.127v-1.225Zm0 52.486v22.231h-22.127v-2.45h17.962l-20.915-21.018 1.725-1.731 20.915 21.014v-18.046h2.44Zm0 94.497v-21.006h-2.44v18.046l-20.915-21.014-1.725 1.731 20.915 21.018h-17.962v2.45h22.127v-1.225Zm0 52.485v22.231h-22.127v-2.45h17.962l-20.915-21.018 1.725-1.731 20.915 21.014v-18.046h2.44Zm0 94.497v-21.006h-2.44v18.046l-20.915-21.014-1.725 1.731 20.915 21.019h-17.962v2.449h22.127V686.9ZM98.472 4.472l-.004 21.007v1.225H76.345v-2.45h17.962L73.387 3.237l1.73-1.731 20.91 21.014.004-18.048h2.44Zm-.004 94.498.004-21.006h-2.44l-.005 18.047-20.91-21.014-1.73 1.731 20.92 21.018H76.345v2.449h22.123V98.97Zm.004 52.485-.004 21.006v1.225H76.345v-2.449h17.962l-20.92-21.018 1.73-1.731 20.91 21.014.004-18.047h2.44Zm-.004 94.498.004-21.007h-2.44l-.005 18.047-20.91-21.014-1.73 1.731 20.92 21.018H76.345v2.449h22.123v-1.224Zm.004 52.484-.004 21.007v1.225H76.345v-2.45h17.962l-20.92-21.017 1.73-1.732 20.91 21.014.004-18.047h2.44Zm-.004 94.498.004-21.007h-2.44l-.005 18.048-20.91-21.014-1.73 1.731 20.92 21.017H76.345v2.45h22.123v-1.225Zm.004 52.486-.004 21.006v1.225H76.345v-2.45h17.962l-20.92-21.018 1.73-1.731 20.91 21.014.004-18.046h2.44Zm-.004 94.497.004-21.006h-2.44l-.005 18.046-20.91-21.014-1.73 1.731 20.92 21.018H76.345v2.45h22.123v-1.225Zm.004 52.485-.004 21.006v1.225H76.345v-2.45h17.962l-20.92-21.018 1.73-1.731 20.91 21.014.004-18.046h2.44Zm-.004 94.497.004-21.006h-2.44l-.005 18.046-20.91-21.014-1.73 1.731 20.92 21.019H76.345v2.449h22.123V686.9ZM28.214 4.472v22.232H6.087v-2.45h17.962L3.134 3.237l1.725-1.731L25.774 22.52V4.472h2.44Zm0 94.498V77.964h-2.44V96.01L4.859 74.997l-1.725 1.731 20.915 21.017H6.087v2.45h22.127V98.97Zm0 52.485v22.231H6.087v-2.449h17.962L3.134 150.219l1.725-1.731 20.915 21.014v-18.047h2.44Zm0 94.498v-21.007h-2.44v18.047L4.859 221.979l-1.725 1.731 20.915 21.018H6.087v2.449h22.127v-1.224Zm0 52.484v22.232H6.087v-2.45h17.962L3.134 297.202l1.725-1.732 20.915 21.014v-18.047h2.44Zm0 94.498v-21.007h-2.44v18.048L4.859 368.962l-1.725 1.731 20.915 21.017H6.087v2.45h22.127v-1.225Zm0 52.486v22.231H6.087v-2.45h17.962L3.134 444.184l1.725-1.731 20.915 21.014v-18.046h2.44Zm0 94.497v-21.006h-2.44v18.046L4.859 515.944l-1.725 1.731 20.915 21.018H6.087v2.45h22.127v-1.225Zm0 52.485v22.231H6.087v-2.45h17.962L3.134 591.166l1.725-1.731 20.915 21.014v-18.046h2.44Zm0 94.497v-21.006h-2.44v18.046L4.859 662.926l-1.725 1.731 20.915 21.019H6.087v2.449h22.127V686.9Z" fill="url(#b)"/></g><defs><linearGradient id="b" x1="2.901" y1="688.375" x2="447.178" y2="-1.134" gradientUnits="userSpaceOnUse"><stop stop-color="#3AB14A"/><stop offset="1" stop-color="#fff"/></linearGradient><clipPath id="a"><path fill="#fff" transform="rotate(90 331.5 331.5)" d="M0 0h690v663H0z"/></clipPath></defs></svg>