<svg width="688" height="688" viewBox="0 0 688 688" fill="none" xmlns="http://www.w3.org/2000/svg"><path fill-rule="evenodd" clip-rule="evenodd" d="M.594 24.48V3.471h2.55V21.52L25.006.506l1.805 1.731L4.947 23.254H23.72v2.45H.594v-1.225Zm0 73.49V76.964h2.55V95.01l21.861-21.014 1.805 1.731L4.947 96.746H23.72v2.45H.594V97.97Zm0 52.485v22.231h23.127v-2.449H4.947l21.863-21.018-1.805-1.731-21.86 21.014v-18.047H.594Zm0 94.498v-21.007h2.55v18.047l21.861-21.014 1.805 1.731-21.863 21.018H23.72v2.449H.594v-1.224Zm0 52.484v22.232h23.127v-2.45H4.947l21.863-21.017-1.805-1.732-21.86 21.014v-18.047H.594Zm0 94.498v-21.007h2.55v18.048l21.861-21.014 1.805 1.731L4.947 390.71H23.72v2.45H.594v-1.225Zm0 52.486v22.231h23.127v-2.45H4.947l21.863-21.018-1.805-1.731-21.86 21.014v-18.046H.594Zm0 94.497v-21.006h2.55v18.046l21.861-21.014 1.805 1.731-21.863 21.018H23.72v2.45H.594v-1.225Zm0 52.485v22.231h23.127v-2.45H4.947l21.863-21.018-1.805-1.731-21.86 21.014v-18.046H.594Zm0 94.497v-21.006h2.55v18.046l21.861-21.014 1.805 1.731-21.863 21.019H23.72v2.449H.594V685.9ZM74.028 3.472v22.232h23.128v-2.45H78.38l21.864-21.017L98.44.506 76.58 21.52V3.472h-2.552Zm0 94.498V76.964h2.551V95.01l21.86-21.014 1.806 1.731-21.864 21.018h18.775v2.45H74.028V97.97Zm0 52.485v22.231h23.128v-2.449H78.38l21.864-21.018-1.805-1.731-21.86 21.014v-18.047h-2.552Zm0 94.498v-21.007h2.551v18.047l21.86-21.014 1.806 1.731-21.864 21.018h18.775v2.449H74.028v-1.224Zm0 52.484v22.232h23.128v-2.45H78.38l21.864-21.017-1.805-1.732-21.86 21.014v-18.047h-2.552Zm0 94.498v-21.007h2.551v18.048l21.86-21.014 1.806 1.731-21.864 21.017h18.775v2.45H74.028v-1.225Zm0 52.486v22.231h23.128v-2.45H78.38l21.864-21.018-1.805-1.731-21.86 21.014v-18.046h-2.552Zm0 94.497v-21.006h2.551v18.046l21.86-21.014 1.806 1.731-21.864 21.018h18.775v2.45H74.028v-1.225Zm0 52.485v22.231h23.128v-2.45H78.38l21.864-21.018-1.805-1.731-21.86 21.014v-18.046h-2.552Zm0 94.497v-21.006h2.551v18.046l21.86-21.014 1.806 1.731-21.864 21.019h18.775v2.449H74.028V685.9ZM147.462 3.472l.001 21.007v1.225h23.127v-2.45h-18.774l21.863-21.017-1.805-1.731-21.86 21.014-.001-18.048h-2.551Zm.001 94.498-.001-21.006h2.551l.001 18.047 21.86-21.014 1.805 1.731-21.863 21.018h18.774v2.45h-23.127V97.97Zm-.001 52.485.001 21.006v1.225h23.127v-2.449h-18.774l21.863-21.018-1.805-1.731-21.86 21.014-.001-18.047h-2.551Zm.001 94.498-.001-21.007h2.551l.001 18.047 21.86-21.014 1.805 1.731-21.863 21.018h18.774v2.449h-23.127v-1.224Zm-.001 52.484.001 21.007v1.225h23.127v-2.45h-18.774l21.863-21.017-1.805-1.731-21.86 21.013-.001-18.047h-2.551Zm.001 94.498-.001-21.007h2.551l.001 18.048 21.86-21.014 1.805 1.731-21.863 21.017h18.774v2.45h-23.127v-1.225Zm-.001 52.486.001 21.006v1.225h23.127v-2.45h-18.774l21.863-21.018-1.805-1.731-21.86 21.014-.001-18.046h-2.551Zm.001 94.497-.001-21.006h2.551l.001 18.046 21.86-21.014 1.805 1.731-21.863 21.018h18.774v2.45h-23.127v-1.225Zm-.001 52.485.001 21.006v1.225h23.127v-2.45h-18.774l21.863-21.018-1.805-1.731-21.86 21.014-.001-18.046h-2.551Zm.001 94.497-.001-21.006h2.551l.001 18.046 21.86-21.014 1.805 1.731-21.863 21.019h18.774v2.449h-23.127V685.9ZM220.897 3.472l.001 21.007v1.225h23.127v-2.45H225.25l21.863-21.017-1.804-1.731-21.861 21.014V3.472h-2.551Zm.001 94.498-.001-21.006h2.551V95.01l21.861-21.014 1.804 1.731-21.863 21.018h18.775v2.45h-23.127V97.97Zm-.001 52.485.001 21.006v1.225h23.127v-2.449H225.25l21.863-21.018-1.804-1.731-21.861 21.014v-18.047h-2.551Zm.001 94.498-.001-21.007h2.551v18.047l21.861-21.014 1.804 1.731-21.863 21.018h18.775v2.449h-23.127v-1.224Zm-.001 52.484.001 21.007v1.225h23.127v-2.45H225.25l21.863-21.017-1.804-1.731-21.861 21.013v-18.047h-2.551Zm.001 94.498-.001-21.007h2.551v18.048l21.861-21.014 1.804 1.731-21.863 21.017h18.775v2.45h-23.127v-1.225Zm-.001 52.486.001 21.006v1.225h23.127v-2.45H225.25l21.863-21.018-1.804-1.731-21.861 21.014v-18.046h-2.551Zm.001 94.497-.001-21.006h2.551v18.046l21.861-21.014 1.804 1.731-21.863 21.018h18.775v2.45h-23.127v-1.225Zm-.001 52.485.001 21.006v1.225h23.127v-2.45H225.25l21.863-21.018-1.804-1.731-21.861 21.014v-18.046h-2.551Zm0 94.497v-21.006h2.551v18.046l21.861-21.014 1.804 1.731-21.863 21.019h18.775v2.449h-23.128V685.9ZM294.332 3.472v22.232h23.127v-2.45h-18.775l21.864-21.017-1.805-1.731-21.86 21.014V3.472h-2.551Zm0 94.498V76.964h2.551V95.01l21.86-21.014 1.805 1.731-21.864 21.018h18.775v2.45h-23.127V97.97Zm0 52.485v22.231h23.127v-2.449h-18.775l21.864-21.018-1.805-1.731-21.86 21.014v-18.047h-2.551Zm0 94.498v-21.007h2.551v18.047l21.86-21.014 1.805 1.731-21.864 21.018h18.775v2.449h-23.127v-1.224Zm0 52.484v22.232h23.127v-2.45h-18.775l21.864-21.017-1.805-1.731-21.86 21.013v-18.047h-2.551Zm0 94.498v-21.007h2.551v18.048l21.86-21.014 1.805 1.731-21.864 21.017h18.775v2.45h-23.127v-1.225Zm0 52.486v22.231h23.127v-2.45h-18.775l21.864-21.018-1.805-1.731-21.86 21.014v-18.046h-2.551Zm0 94.497v-21.006h2.551v18.046l21.86-21.014 1.805 1.731-21.864 21.018h18.775v2.45h-23.127v-1.225Zm0 52.485v22.231h23.127v-2.449l-18.775-.001 21.864-21.018-1.805-1.731-21.86 21.014v-18.046h-2.551Zm0 94.497v-21.006h2.551v18.046l21.86-21.014 1.805 1.731-21.864 21.019h18.775v2.449h-23.127V685.9ZM367.766 3.472v22.232h23.127v-2.45h-18.774l21.863-21.017-1.804-1.731-21.861 21.014V3.472h-2.551Zm0 94.498V76.964h2.551V95.01l21.861-21.014 1.804 1.731-21.863 21.018h18.774v2.45h-23.127V97.97Zm0 52.485v22.231h23.127v-2.449h-18.774l21.863-21.018-1.804-1.731-21.861 21.014v-18.047h-2.551Zm0 94.498v-21.007h2.551v18.047l21.861-21.014 1.804 1.731-21.863 21.018h18.774v2.449h-23.127v-1.224Zm0 52.484v22.232h23.127v-2.45h-18.774l21.863-21.017-1.804-1.731-21.861 21.013v-18.047h-2.551Zm0 94.498v-21.007h2.551v18.048l21.861-21.014 1.804 1.731-21.863 21.017h18.774v2.45h-23.127v-1.225Zm0 52.486v22.231h23.127v-2.45h-18.774l21.863-21.018-1.804-1.731-21.861 21.014v-18.046h-2.551Zm0 94.497v-21.006h2.551v18.046l21.861-21.014 1.804 1.731-21.863 21.018h18.774v2.45h-23.127v-1.225Zm0 52.485v22.231h23.127v-2.449h-18.774l21.863-21.019-1.804-1.731-21.861 21.014v-18.046h-2.551Zm0 94.497v-21.006h2.551v18.046l21.861-21.014 1.804 1.731-21.863 21.019h18.774v2.449h-23.127V685.9Zm73.44-682.428v22.232h23.125v-2.45h-18.775l21.865-21.017-1.806-1.731-21.858 21.014V3.472h-2.551Zm0 94.498V76.964h2.551V95.01l21.858-21.014 1.806 1.731-21.865 21.018h18.775v2.45h-23.125V97.97Zm0 52.485v22.231h23.125v-2.449h-18.775l21.865-21.018-1.806-1.731-21.858 21.014v-18.047h-2.551Zm0 94.498v-21.007h2.551v18.047l21.858-21.014 1.806 1.732-21.865 21.017h18.775v2.449h-23.125v-1.224Zm0 52.484v22.232h23.125v-2.45h-18.775l21.865-21.017-1.806-1.731-21.858 21.013v-18.047h-2.551Zm0 94.498v-21.007h2.551v18.048l21.858-21.014 1.806 1.731-21.865 21.017h18.775v2.45h-23.125v-1.225Zm0 52.486v22.231h23.125v-2.45h-18.775l21.865-21.018-1.806-1.731-21.858 21.014v-18.046h-2.551Zm0 94.497v-21.006h2.551v18.046l21.858-21.014 1.806 1.731-21.865 21.018h18.775v2.45h-23.125v-1.225Zm0 52.485v22.231h23.125v-2.449h-18.775l21.865-21.019-1.806-1.731-21.858 21.014v-18.046h-2.551Zm0 94.497v-21.006h2.551v18.046l21.858-21.014 1.806 1.731-21.865 21.019h18.775v2.449h-23.125V685.9ZM514.639 3.472v22.232h23.128v-2.45h-18.774l21.861-21.017-1.803-1.731L517.19 21.52V3.472h-2.551Zm0 94.498V76.964h2.551V95.01l21.861-21.014 1.803 1.731-21.861 21.018h18.774v2.45h-23.128V97.97Zm0 52.485v22.231h23.128v-2.449h-18.774l21.861-21.018-1.803-1.731-21.861 21.014v-18.047h-2.551Zm0 94.498v-21.007h2.551v18.047l21.861-21.014 1.803 1.732-21.861 21.017h18.774v2.449h-23.128v-1.224Zm0 52.484v22.232h23.128v-2.45h-18.774l21.861-21.017-1.803-1.731-21.861 21.013v-18.047h-2.551Zm0 94.498v-21.007h2.551v18.048l21.861-21.014 1.803 1.731-21.861 21.017h18.774v2.45h-23.128v-1.225Zm0 52.486v22.231h23.128v-2.45h-18.774l21.861-21.018-1.803-1.731-21.861 21.014v-18.046h-2.551Zm0 94.497v-21.006h2.551v18.046l21.861-21.014 1.803 1.731-21.861 21.018h18.774v2.45h-23.128v-1.225Zm0 52.485v22.231h23.128v-2.449h-18.774l21.861-21.019-1.803-1.731-21.861 21.014v-18.046h-2.551Zm0 94.497v-21.006h2.551v18.046l21.861-21.014 1.803 1.731-21.861 21.019h18.774v2.449h-23.128V685.9ZM588.071 3.472l.005 21.007v1.225H611.2v-2.45h-18.775l21.866-21.017-1.807-1.731-21.857 21.014-.005-18.048h-2.551Zm.005 94.498-.005-21.006h2.551l.005 18.047 21.857-21.014 1.807 1.731-21.866 21.018H611.2v2.45h-23.124V97.97Zm-.005 52.485.005 21.006v1.225H611.2v-2.449h-18.775l21.866-21.018-1.807-1.731-21.857 21.014-.005-18.047h-2.551Zm.005 94.498-.005-21.007h2.551l.005 18.047 21.857-21.014 1.807 1.732-21.866 21.017H611.2v2.449h-23.124v-1.224Zm-.005 52.484.005 21.007v1.225H611.2v-2.45h-18.775l21.866-21.017-1.807-1.731-21.857 21.013-.005-18.047h-2.551Zm.005 94.498-.005-21.007h2.551l.005 18.048 21.857-21.014 1.807 1.731-21.866 21.017H611.2v2.45h-23.124v-1.225Zm-.005 52.486.005 21.006v1.225H611.2v-2.45h-18.775l21.866-21.018-1.807-1.731-21.857 21.014-.005-18.046h-2.551Zm.005 94.497-.005-21.006h2.551l.005 18.046 21.857-21.014 1.807 1.731-21.866 21.018H611.2v2.45h-23.124v-1.225Zm-.005 52.485.005 21.006v1.225H611.2v-2.449h-18.775l21.866-21.019-1.807-1.731-21.857 21.014-.005-18.046h-2.551Zm.005 94.497-.005-21.006h2.551l.005 18.046 21.857-21.014 1.807 1.731-21.866 21.019H611.2v2.449h-23.124V685.9ZM661.508 3.472v22.232h23.129v-2.45h-18.775l21.861-21.017L685.92.506 664.059 21.52V3.472h-2.551Zm0 94.498V76.964h2.551V95.01l21.861-21.014 1.803 1.731-21.861 21.018h18.775v2.45h-23.129V97.97Zm0 52.485v22.231h23.129v-2.449h-18.775l21.861-21.018-1.803-1.731-21.861 21.014v-18.047h-2.551Zm0 94.498v-21.007h2.551v18.047l21.861-21.014 1.803 1.732-21.861 21.017h18.775v2.449h-23.129v-1.224Zm0 52.484v22.232h23.129v-2.45h-18.775l21.861-21.017-1.803-1.731-21.861 21.013v-18.047h-2.551Zm0 94.498v-21.007h2.551v18.048l21.861-21.014 1.803 1.731-21.861 21.017h18.775v2.45h-23.129v-1.225Zm0 52.486v22.231h23.129v-2.45h-18.775l21.861-21.018-1.803-1.731-21.861 21.014v-18.046h-2.551Zm0 94.497v-21.006h2.551v18.046l21.861-21.014 1.803 1.731-21.861 21.018h18.775v2.45h-23.129v-1.225Zm0 52.485v22.231h23.129v-2.449h-18.775l21.861-21.019-1.803-1.731-21.861 21.014v-18.046h-2.551Zm0 94.497v-21.006h2.551v18.046l21.861-21.014 1.803 1.731-21.861 21.019h18.775v2.449h-23.129V685.9Z" fill="url(#a)"/><defs><linearGradient id="a" x1="687.967" y1="687.375" x2="252.091" y2="-19.705" gradientUnits="userSpaceOnUse"><stop stop-color="#3AB14A"/><stop offset="1" stop-color="#fff"/></linearGradient></defs></svg>