<svg width="852" height="118" viewBox="0 0 852 118" fill="none" xmlns="http://www.w3.org/2000/svg"><path d="M33.772 118c-6.86 0-12.912-1.57-18.157-4.71-5.165-3.06-8.836-7.166-11.015-12.32l10.53-4.83c1.211 3.22 3.43 5.837 6.658 7.85 3.228 2.093 7.183 3.14 11.863 3.14 5.73 0 10.49-1.651 14.284-4.952 3.792-3.22 5.689-7.73 5.689-13.527v-9.058c-2.421 3.3-5.528 5.837-9.32 7.609-3.794 1.771-7.91 2.657-12.348 2.657-6.052 0-11.499-1.41-16.34-4.227-4.843-2.9-8.676-6.804-11.5-11.716C1.372 68.924 0 63.408 0 57.37c0-6.04 1.372-11.515 4.116-16.426 2.743-4.992 6.536-8.898 11.378-11.716 4.842-2.898 10.289-4.348 16.341-4.348 4.52 0 8.675.926 12.468 2.778 3.793 1.772 7.021 4.348 9.684 7.73V26.33h11.015v62.32c0 5.636-1.331 10.669-3.994 15.097-2.663 4.429-6.375 7.891-11.137 10.387-4.76 2.577-10.127 3.865-16.099 3.865Zm-21.91-60.63c0 3.945.888 7.568 2.664 10.87 1.856 3.3 4.398 5.918 7.626 7.85 3.227 1.933 6.819 2.899 10.773 2.899 3.793 0 7.263-.966 10.41-2.899 3.228-1.932 5.73-4.55 7.505-7.85 1.856-3.302 2.784-6.925 2.784-10.87 0-3.946-.928-7.57-2.784-10.87-1.776-3.302-4.277-5.919-7.505-7.851-3.147-1.932-6.617-2.899-10.41-2.899-3.954 0-7.545.967-10.773 2.899-3.148 1.932-5.65 4.55-7.505 7.85-1.856 3.302-2.784 6.925-2.784 10.87Zm70.813-31.04H93.69v7.73c3.39-5.637 9.159-8.455 17.31-8.455h3.994v10.628h-5.689c-4.68 0-8.433 1.45-11.257 4.348-2.744 2.899-4.116 6.925-4.116 12.078v38.77H82.675v-65.1Zm73.527 66.548c-6.214 0-11.903-1.45-17.067-4.348-5.084-2.979-9.119-7.045-12.105-12.198-2.986-5.234-4.479-11.072-4.479-17.513 0-6.361 1.453-12.118 4.358-17.271 2.986-5.234 7.021-9.3 12.105-12.199 5.164-2.98 10.894-4.469 17.188-4.469 6.214 0 11.863 1.49 16.947 4.469 5.164 2.899 9.199 6.925 12.105 12.078 2.985 5.153 4.478 10.95 4.478 17.392 0 6.522-1.493 12.36-4.478 17.513-2.986 5.153-7.062 9.219-12.226 12.198-5.084 2.899-10.693 4.348-16.826 4.348Zm-21.788-34.06c0 4.349.928 8.294 2.784 11.837 1.937 3.543 4.559 6.32 7.868 8.334 3.389 2.013 7.101 3.02 11.136 3.02 3.954 0 7.586-1.007 10.894-3.02 3.309-2.013 5.891-4.791 7.747-8.334 1.937-3.543 2.906-7.488 2.906-11.836s-.969-8.253-2.906-11.716c-1.856-3.542-4.438-6.32-7.747-8.333-3.308-2.013-6.94-3.02-10.894-3.02-4.035 0-7.747 1.007-11.136 3.02-3.309 2.013-5.931 4.79-7.868 8.333-1.856 3.463-2.784 7.368-2.784 11.716Zm61.655-32.488h12.468l15.615 47.707 15.252-47.708h10.652l15.252 47.708 15.736-47.708h12.347l-22.394 65.1h-10.773L244.73 42.393l-15.494 49.036h-10.773l-22.394-65.1Zm134.119 65.823c-6.375 0-11.298-1.77-14.768-5.314-3.389-3.623-5.084-8.776-5.084-15.46v-34.3h-11.862v-10.75h2.421c2.905 0 5.205-.845 6.899-2.536 1.695-1.771 2.542-4.146 2.542-7.126v-5.314h11.258V26.33h14.646v10.75h-14.646v33.938c0 7.247 3.631 10.87 10.894 10.87 1.533 0 3.026-.12 4.479-.362V91.55c-1.695.402-3.955.603-6.779.603ZM351.892 0h11.257v33.938c1.937-2.898 4.479-5.112 7.626-6.642 3.228-1.61 6.819-2.416 10.773-2.416 4.6 0 8.756 1.087 12.468 3.261 3.712 2.094 6.618 4.992 8.716 8.696 2.179 3.704 3.268 7.85 3.268 12.44V91.43h-11.378V52.9c0-5.315-1.453-9.502-4.358-12.561-2.905-3.06-6.658-4.59-11.258-4.59-4.599 0-8.392 1.57-11.378 4.71-2.986 3.06-4.479 7.207-4.479 12.44V91.43h-11.257V-.001Zm70.27 3.205h26.388V13.4h-14.753v86.961h14.753v10.195h-26.388V3.205Zm39.396 24.709h10.915v8.996c2.559-3.279 5.758-5.838 9.596-7.677 3.918-1.84 8.276-2.759 13.074-2.759 5.997 0 11.435 1.48 16.313 4.438 4.877 2.959 8.716 7.037 11.514 12.235 2.799 5.117 4.198 10.835 4.198 17.152s-1.399 12.035-4.198 17.152c-2.798 5.118-6.637 9.156-11.514 12.115-4.878 2.958-10.356 4.438-16.433 4.438-4.638 0-8.916-.88-12.834-2.64-3.838-1.838-6.997-4.437-9.476-7.796v32.985h-11.155v-88.64Zm11.155 32.385c0 4.318.92 8.236 2.759 11.755 1.919 3.438 4.518 6.157 7.796 8.156 3.279 1.999 6.917 2.999 10.915 2.999 3.999 0 7.597-1 10.796-3 3.278-1.998 5.797-4.717 7.556-8.155 1.839-3.519 2.759-7.437 2.759-11.755 0-4.318-.92-8.236-2.759-11.755-1.839-3.518-4.358-6.277-7.556-8.276-3.199-1.999-6.797-2.999-10.796-2.999-3.998 0-7.636 1-10.915 3-3.278 1.998-5.877 4.757-7.796 8.275-1.839 3.519-2.759 7.437-2.759 11.755Zm99.047 33.705c-6.078 0-11.595-1.48-16.553-4.438-4.957-2.959-8.836-6.997-11.634-12.115-2.799-5.197-4.199-10.995-4.199-17.392s1.36-12.154 4.079-17.272c2.798-5.118 6.557-9.116 11.274-11.995 4.798-2.878 10.156-4.318 16.073-4.318 6.157 0 11.515 1.44 16.073 4.318 4.638 2.88 8.156 6.717 10.555 11.515 2.479 4.718 3.718 9.796 3.718 15.233 0 1.84-.2 3.838-.599 5.998h-49.418c.16 4.078 1.2 7.636 3.119 10.675 1.919 3.038 4.398 5.397 7.436 7.076 3.119 1.68 6.517 2.52 10.196 2.52 7.836 0 13.873-3.56 18.111-10.676l9.356 4.798c-2.079 4.638-5.597 8.476-10.555 11.515-4.958 3.038-10.635 4.558-17.032 4.558Zm17.272-40.062c-.16-5.038-1.999-9.196-5.518-12.474-3.438-3.359-7.676-5.038-12.714-5.038-4.958 0-9.236 1.6-12.834 4.798-3.598 3.118-5.797 7.356-6.597 12.714h37.663Zm26.877-26.028h10.915v7.676c3.358-5.597 9.076-8.396 17.152-8.396h3.958v10.555h-5.637c-4.638 0-8.356 1.44-11.155 4.318-2.719 2.879-4.078 6.877-4.078 11.995v38.502h-11.155v-64.65Zm42.152 0h11.155v64.65h-11.155v-64.65Zm-1.32-17.273c0-2.079.64-3.758 1.92-5.037 1.279-1.28 2.958-1.92 5.037-1.92 2.079 0 3.759.64 5.038 1.92 1.279 1.28 1.919 2.958 1.919 5.038 0 2.079-.64 3.758-1.919 5.037-1.279 1.28-2.959 1.92-5.038 1.92s-3.758-.64-5.037-1.92c-1.28-1.28-1.92-2.958-1.92-5.037Zm122.241 83.363c-5.998 0-11.435-1.48-16.313-4.438-4.878-2.96-8.716-6.997-11.515-12.115-2.798-5.118-4.198-10.835-4.198-17.152s1.4-12.035 4.198-17.152c2.799-5.198 6.637-9.276 11.515-12.235 4.878-2.958 10.315-4.438 16.313-4.438 4.717 0 8.956.88 12.714 2.64 3.838 1.758 7.037 4.237 9.595 7.436V1.766h11.275v90.798h-10.915V83.09c-2.399 3.438-5.597 6.117-9.595 8.036-3.919 1.919-8.277 2.879-13.074 2.879Zm-20.271-33.705c0 4.318.919 8.236 2.759 11.755 1.839 3.438 4.358 6.157 7.556 8.156 3.279 1.999 6.917 2.999 10.915 2.999 3.998 0 7.597-1 10.795-3 3.279-1.998 5.838-4.717 7.677-8.155 1.919-3.519 2.878-7.437 2.878-11.755 0-4.318-.959-8.236-2.878-11.755-1.839-3.518-4.398-6.277-7.677-8.276-3.198-2-6.797-2.999-10.795-2.999s-7.636 1-10.915 2.999c-3.198 2-5.717 4.758-7.556 8.276-1.84 3.519-2.759 7.437-2.759 11.755Zm66.901 40.062h14.753v-86.96h-14.753V3.204H852v107.351h-26.388V100.36Z" fill="#fff"/><rect x="735" y="83" width="47" height="47" rx="23.5" transform="rotate(-180 735 83)" fill="#3AB14A"/></svg>