<svg width="127" height="48" viewBox="0 0 127 48" fill="none" xmlns="http://www.w3.org/2000/svg"><path d="M58.664 28.095h3.718v1.44h-2.079v12.286h2.079v1.44h-3.718V28.095Zm5.555 3.491h1.538v1.27a3.74 3.74 0 0 1 1.352-1.084 4.27 4.27 0 0 1 1.841-.39c.845 0 1.611.21 2.299.628a4.436 4.436 0 0 1 1.622 1.728c.394.723.591 1.53.591 2.423 0 .892-.197 1.7-.591 2.423a4.468 4.468 0 0 1-1.622 1.712c-.688.418-1.46.627-2.316.627a4.354 4.354 0 0 1-1.808-.373 3.528 3.528 0 0 1-1.335-1.101v4.66h-1.57V31.585Zm1.572 4.575c0 .61.129 1.164.388 1.66.27.486.637.87 1.099 1.153a2.89 2.89 0 0 0 1.537.424c.564 0 1.07-.142 1.521-.424a2.833 2.833 0 0 0 1.065-1.152c.259-.497.388-1.05.388-1.66 0-.61-.13-1.164-.388-1.661a2.966 2.966 0 0 0-1.065-1.17 2.804 2.804 0 0 0-1.52-.423 2.89 2.89 0 0 0-1.538.423 3.046 3.046 0 0 0-1.099 1.17 3.538 3.538 0 0 0-.389 1.66Zm13.958 4.762a4.455 4.455 0 0 1-3.971-2.339c-.394-.734-.591-1.553-.591-2.457 0-.904.191-1.717.574-2.44a4.426 4.426 0 0 1 1.589-1.694 4.307 4.307 0 0 1 2.264-.61c.867 0 1.622.203 2.264.61.653.406 1.15.949 1.487 1.626a4.569 4.569 0 0 1 .44 3h-6.962c.022.576.168 1.078.439 1.508.27.43.62.762 1.048 1 .439.237.918.355 1.436.355 1.104 0 1.954-.502 2.551-1.508l1.319.678c-.293.655-.789 1.197-1.487 1.627-.699.43-1.499.644-2.4.644Zm2.433-5.66c-.022-.712-.281-1.299-.777-1.762-.484-.475-1.082-.712-1.791-.712-.699 0-1.301.226-1.808.678-.507.44-.817 1.04-.93 1.796h5.306Zm3.791-3.677h1.538v1.084c.473-.79 1.279-1.186 2.416-1.186h.558v1.491h-.794c-.653 0-1.177.204-1.572.61-.382.407-.574.972-.574 1.695v5.44h-1.572v-9.134Zm5.944 0h1.571v9.133h-1.571v-9.133Zm-.186-2.44c0-.294.09-.531.27-.712.18-.18.417-.27.71-.27s.53.09.71.27c.18.181.27.418.27.712s-.09.531-.27.712c-.18.18-.417.27-.71.27s-.53-.09-.71-.27c-.18-.181-.27-.418-.27-.712Zm17.24 11.777c-.845 0-1.611-.21-2.298-.627a4.466 4.466 0 0 1-1.622-1.712c-.394-.723-.591-1.53-.591-2.423 0-.892.197-1.7.591-2.423a4.433 4.433 0 0 1 1.622-1.728 4.335 4.335 0 0 1 2.298-.627c.665 0 1.262.124 1.792.373.54.248.991.598 1.351 1.05v-4.914h1.589V40.72h-1.538v-1.338a3.412 3.412 0 0 1-1.352 1.135 4.122 4.122 0 0 1-1.842.407Zm-2.855-4.762c0 .61.129 1.164.388 1.66.259.486.614.87 1.065 1.153a2.89 2.89 0 0 0 1.538.424 2.8 2.8 0 0 0 1.52-.424 2.953 2.953 0 0 0 1.082-1.152 3.42 3.42 0 0 0 .405-1.66c0-.61-.135-1.164-.405-1.661a2.924 2.924 0 0 0-1.082-1.17 2.8 2.8 0 0 0-1.52-.423 2.89 2.89 0 0 0-1.538.423 2.962 2.962 0 0 0-1.065 1.17 3.539 3.539 0 0 0-.388 1.66Zm9.43 5.66h2.078V29.536h-2.078v-1.44h3.717V43.26h-3.717v-1.44Z" fill="#050A06"/><path d="M9.043 30.096c-1.557 0-2.931-.365-4.122-1.096-1.173-.712-2.007-1.667-2.502-2.866l2.392-1.124c.274.75.778 1.358 1.511 1.827.733.487 1.631.73 2.694.73 1.3 0 2.382-.384 3.243-1.152.861-.75 1.292-1.798 1.292-3.147V21.16a5.453 5.453 0 0 1-2.117 1.77 6.41 6.41 0 0 1-2.803.619c-1.374 0-2.611-.328-3.71-.984a7.376 7.376 0 0 1-2.612-2.725c-.623-1.162-.934-2.445-.934-3.85 0-1.405.311-2.679.934-3.822a6.906 6.906 0 0 1 2.584-2.725c1.1-.675 2.336-1.012 3.71-1.012 1.027 0 1.97.216 2.831.646a6.03 6.03 0 0 1 2.2 1.799V8.768h2.5v14.5c0 1.311-.302 2.482-.907 3.512a6.355 6.355 0 0 1-2.528 2.417c-1.081.6-2.3.9-3.656.9ZM4.07 15.99c0 .918.201 1.76.604 2.529a4.826 4.826 0 0 0 1.732 1.827c.733.45 1.548.674 2.446.674a4.35 4.35 0 0 0 2.363-.674 4.623 4.623 0 0 0 1.705-1.827 5.171 5.171 0 0 0 .632-2.529 5.17 5.17 0 0 0-.632-2.529 4.623 4.623 0 0 0-1.705-1.826 4.35 4.35 0 0 0-2.363-.675c-.898 0-1.713.225-2.446.675A4.9 4.9 0 0 0 4.7 13.46a5.17 5.17 0 0 0-.632 2.53Zm16.067-7.222h2.501v1.799c.77-1.312 2.08-1.967 3.93-1.967h.908v2.473h-1.292c-1.063 0-1.915.337-2.556 1.011-.623.675-.935 1.611-.935 2.81v9.02h-2.556V8.768ZM36.82 24.251c-1.41 0-2.702-.337-3.875-1.011a7.626 7.626 0 0 1-2.748-2.838c-.678-1.218-1.017-2.576-1.017-4.075 0-1.48.33-2.82.99-4.018.677-1.218 1.593-2.164 2.748-2.838 1.172-.693 2.473-1.04 3.902-1.04 1.411 0 2.694.347 3.848 1.04a7.158 7.158 0 0 1 2.749 2.81c.678 1.199 1.017 2.548 1.017 4.046 0 1.518-.34 2.876-1.017 4.075a7.558 7.558 0 0 1-2.776 2.838c-1.154.674-2.428 1.011-3.82 1.011Zm-4.947-7.924c0 1.012.211 1.93.632 2.754a5.013 5.013 0 0 0 1.787 1.939c.77.468 1.612.702 2.528.702.898 0 1.723-.234 2.474-.702a4.813 4.813 0 0 0 1.76-1.939c.439-.824.659-1.742.659-2.754 0-1.011-.22-1.92-.66-2.725a4.814 4.814 0 0 0-1.759-1.94 4.584 4.584 0 0 0-2.474-.702c-.916 0-1.759.234-2.528.703a5.015 5.015 0 0 0-1.787 1.939c-.421.805-.632 1.714-.632 2.725Zm13.989-7.559h2.83l3.546 11.1 3.464-11.1h2.418l3.463 11.1 3.573-11.1h2.804l-5.085 15.146h-2.446L56.91 12.506l-3.518 11.408h-2.446L45.862 8.768Zm30.442 15.315c-1.448 0-2.565-.412-3.353-1.237-.77-.843-1.154-2.041-1.154-3.596v-7.98h-2.694V8.767h.55c.66 0 1.181-.196 1.566-.59.385-.412.578-.965.578-1.658V5.284h2.556v3.484h3.325v2.501h-3.325v7.896c0 1.686.824 2.53 2.473 2.53.348 0 .687-.029 1.017-.085v2.332c-.385.094-.898.14-1.539.14Zm4.917-21.44h2.556v7.896a4.347 4.347 0 0 1 1.732-1.546c.733-.375 1.548-.562 2.446-.562 1.045 0 1.988.253 2.831.759a5.194 5.194 0 0 1 1.979 2.023c.495.862.742 1.827.742 2.894v9.807h-2.584V14.95c0-1.236-.33-2.21-.989-2.922-.66-.712-1.512-1.068-2.556-1.068s-1.906.365-2.584 1.096c-.678.712-1.016 1.677-1.016 2.894v8.964H81.22V2.643ZM99.28 38.919a2.587 2.587 0 0 0 2.579-2.595 2.587 2.587 0 0 0-2.58-2.594 2.587 2.587 0 0 0-2.578 2.594 2.587 2.587 0 0 0 2.579 2.595Z" fill="#3AB14A"/></svg>