<svg width="143" height="72" viewBox="0 0 143 72" fill="none" xmlns="http://www.w3.org/2000/svg"><path d="M39.996 44.062h6.15v2.414h-3.438v20.592h3.438v2.414h-6.15v-25.42Zm9.19 5.85h2.543v2.13a6.203 6.203 0 0 1 2.236-1.817c.913-.436 1.929-.653 3.047-.653 1.398 0 2.665.35 3.801 1.05 1.137.701 2.032 1.667 2.684 2.898.652 1.211.978 2.566.978 4.061 0 1.496-.326 2.85-.978 4.062a7.449 7.449 0 0 1-2.684 2.869c-1.136.7-2.413 1.05-3.829 1.05-1.08 0-2.078-.208-2.991-.624a5.852 5.852 0 0 1-2.208-1.846v7.81h-2.6v-20.99Zm2.599 7.67c0 1.022.214 1.95.643 2.783a5.134 5.134 0 0 0 1.817 1.931c.764.474 1.611.71 2.543.71.932 0 1.77-.236 2.516-.71a4.726 4.726 0 0 0 1.761-1.931c.429-.833.643-1.761.643-2.784 0-1.022-.214-1.95-.643-2.783-.429-.833-1.016-1.487-1.761-1.96-.745-.473-1.584-.71-2.516-.71-.932 0-1.78.237-2.543.71a5.079 5.079 0 0 0-1.817 1.96c-.429.833-.643 1.76-.643 2.783Zm23.09 7.98c-1.416 0-2.702-.35-3.857-1.05a7.38 7.38 0 0 1-2.712-2.869c-.652-1.23-.978-2.604-.978-4.118 0-1.515.317-2.879.95-4.09.653-1.212 1.528-2.16 2.628-2.84 1.118-.682 2.366-1.023 3.745-1.023 1.436 0 2.684.34 3.746 1.022a6.63 6.63 0 0 1 2.46 2.727 7.74 7.74 0 0 1 .727 5.027H70.067c.038.966.28 1.809.727 2.528a4.77 4.77 0 0 0 1.733 1.676 4.87 4.87 0 0 0 2.376.596c1.826 0 3.233-.842 4.221-2.527l2.18 1.136c-.484 1.098-1.304 2.007-2.46 2.726-1.155.72-2.478 1.08-3.969 1.08Zm4.025-9.486c-.037-1.193-.465-2.177-1.285-2.954-.802-.795-1.79-1.193-2.963-1.193-1.156 0-2.153.379-2.991 1.136-.839.739-1.352 1.742-1.538 3.011H78.9Zm6.272-6.163h2.543v1.817c.783-1.325 2.116-1.988 3.998-1.988h.922v2.5h-1.314c-1.08 0-1.947.34-2.6 1.022-.633.682-.95 1.629-.95 2.84v9.118h-2.6v-15.31Zm9.831 0h2.6v15.309h-2.6v-15.31Zm-.307-4.09c0-.493.149-.89.447-1.193.298-.303.69-.455 1.174-.455.485 0 .876.152 1.174.455.298.302.447.7.447 1.192 0 .493-.149.89-.447 1.194-.298.302-.69.454-1.174.454s-.876-.152-1.174-.454c-.298-.303-.447-.701-.447-1.194Zm28.519 19.74c-1.397 0-2.665-.35-3.801-1.051-1.137-.7-2.031-1.657-2.684-2.869-.652-1.212-.978-2.566-.978-4.062 0-1.495.326-2.85.978-4.061.653-1.231 1.547-2.197 2.684-2.897 1.136-.7 2.404-1.051 3.801-1.051 1.1 0 2.087.208 2.963.625a6.06 6.06 0 0 1 2.237 1.76v-8.236h2.627v21.5h-2.544v-2.243a5.668 5.668 0 0 1-2.236 1.903c-.913.454-1.929.682-3.047.682Zm-4.724-7.982c0 1.023.215 1.95.643 2.784a5.003 5.003 0 0 0 1.761 1.931c.764.474 1.612.71 2.544.71.932 0 1.77-.236 2.516-.71a4.929 4.929 0 0 0 1.789-1.931c.447-.833.671-1.761.671-2.784 0-1.022-.224-1.95-.671-2.783a4.88 4.88 0 0 0-1.789-1.96c-.746-.473-1.584-.71-2.516-.71-.932 0-1.78.237-2.544.71-.745.473-1.332 1.127-1.761 1.96-.428.833-.643 1.76-.643 2.783Zm15.599 9.487h3.439V46.476h-3.439v-2.414h6.15v25.42h-6.15v-2.414Z" fill="#050A06"/><path d="M13.554 44.831c-2.335 0-4.394-.544-6.18-1.632-1.757-1.06-3.006-2.484-3.748-4.27l3.584-1.674c.412 1.116 1.167 2.023 2.266 2.72 1.098.726 2.444 1.089 4.036 1.089 1.95 0 3.57-.572 4.861-1.716 1.291-1.116 1.936-2.68 1.936-4.688v-3.14a8.162 8.162 0 0 1-3.172 2.637c-1.29.614-2.69.921-4.201.921-2.06 0-3.914-.488-5.561-1.465a11.018 11.018 0 0 1-3.914-4.06c-.933-1.73-1.4-3.641-1.4-5.734s.467-3.99 1.4-5.693c.934-1.73 2.225-3.083 3.872-4.06 1.648-1.005 3.502-1.507 5.562-1.507 1.537 0 2.952.321 4.242.963a9.025 9.025 0 0 1 3.296 2.679v-3.14h3.749V34.66c0 1.953-.453 3.697-1.36 5.232-.906 1.534-2.17 2.735-3.79 3.6-1.62.893-3.446 1.339-5.478 1.339ZM6.098 23.819c0 1.367.302 2.623.906 3.767a7.208 7.208 0 0 0 2.595 2.72c1.099.67 2.32 1.005 3.666 1.005a6.55 6.55 0 0 0 3.543-1.004 6.903 6.903 0 0 0 2.554-2.721c.632-1.144.947-2.4.947-3.767s-.315-2.623-.947-3.767a6.904 6.904 0 0 0-2.554-2.721 6.55 6.55 0 0 0-3.543-1.005c-1.345 0-2.567.335-3.666 1.005a7.316 7.316 0 0 0-2.554 2.72c-.632 1.145-.947 2.4-.947 3.768ZM30.18 13.06h3.748v2.68c1.154-1.954 3.117-2.93 5.89-2.93h1.36v3.683h-1.936c-1.592 0-2.87.502-3.83 1.506-.934 1.005-1.401 2.4-1.401 4.186v13.436H30.18v-22.56Zm25.005 23.064c-2.114 0-4.05-.503-5.808-1.507-1.73-1.032-3.103-2.442-4.12-4.228-1.015-1.814-1.523-3.837-1.523-6.069 0-2.205.494-4.2 1.483-5.986 1.016-1.813 2.389-3.223 4.12-4.227 1.757-1.033 3.706-1.549 5.848-1.549 2.115 0 4.037.516 5.768 1.549a10.692 10.692 0 0 1 4.119 4.186c1.016 1.785 1.524 3.795 1.524 6.027 0 2.26-.508 4.284-1.524 6.07a11.291 11.291 0 0 1-4.16 4.227c-1.73 1.004-3.64 1.507-5.727 1.507ZM47.771 24.32c0 1.507.316 2.874.947 4.102.66 1.228 1.552 2.19 2.678 2.888a7.187 7.187 0 0 0 3.79 1.047 6.902 6.902 0 0 0 3.707-1.047c1.126-.697 2.005-1.66 2.636-2.888.66-1.228.989-2.595.989-4.102 0-1.507-.33-2.86-.989-4.06-.631-1.228-1.51-2.19-2.636-2.888a6.902 6.902 0 0 0-3.708-1.047 7.187 7.187 0 0 0-3.79 1.047c-1.125.697-2.018 1.66-2.677 2.888-.631 1.2-.947 2.553-.947 4.06Zm20.966-11.26h4.243l5.314 16.534 5.19-16.534h3.625l5.19 16.534 5.355-16.534h4.202l-7.62 22.561h-3.667l-5.273-16.994-5.272 16.994h-3.666l-7.621-22.56Zm45.626 22.813c-2.17 0-3.845-.614-5.026-1.842-1.153-1.256-1.73-3.042-1.73-5.358V16.787h-4.037V13.06h.824c.988 0 1.771-.293 2.348-.879.576-.614.865-1.437.865-2.47v-1.84h3.831v5.19h4.984v3.725h-4.984v11.762c0 2.511 1.236 3.767 3.707 3.767.522 0 1.03-.042 1.524-.126v3.474c-.576.14-1.345.21-2.306.21Zm7.37-31.937h3.831v11.761a6.501 6.501 0 0 1 2.595-2.302c1.098-.558 2.32-.837 3.666-.837 1.565 0 2.979.377 4.243 1.13a7.76 7.76 0 0 1 2.966 3.014c.741 1.284 1.112 2.72 1.112 4.311v14.608h-3.872V22.27c0-1.842-.494-3.293-1.483-4.353-.989-1.06-2.266-1.59-3.831-1.59s-2.856.543-3.872 1.632c-1.017 1.06-1.524 2.497-1.524 4.311v13.352h-3.831V3.937Zm-14.924 59.791c3.25 0 5.885-2.677 5.885-5.98 0-3.302-2.635-5.98-5.885-5.98s-5.885 2.678-5.885 5.98c0 3.303 2.635 5.98 5.885 5.98Z" fill="#3AB14A"/></svg>